<?xml version="1.0" encoding="UTF-8"?>
<svg width="17px" height="17px" viewBox="0 0 17 17" version="1.1" xmlns="http://www.w3.org/2000/svg" xmlns:xlink="http://www.w3.org/1999/xlink">
    <title>信息icon</title>
    <g id="开放平台" stroke="none" stroke-width="1" fill="none" fill-rule="evenodd">
        <g id="控制台_Appkey管理_超管_没购买_申请前" transform="translate(-670.000000, -639.000000)" fill="#32CDAA" fill-rule="nonzero">
            <g id="信息icon" transform="translate(670.500000, 639.500000)">
                <path d="M8,0 C3.6,0 0,3.6 0,8 C0,12.4 3.6,16 8,16 C12.4,16 16,12.4 16,8 C16,3.6 12.4,0 8,0 Z M8.11428571,3.2 C8.8,3.2 9.31428571,3.71428571 9.31428571,4.4 C9.31428571,5.08571429 8.8,5.6 8.11428571,5.6 C7.42857143,5.6 6.91428571,5.08571429 6.91428571,4.4 C6.91428571,3.71428571 7.42857143,3.2 8.11428571,3.2 Z M9.71428571,12 C9.71428571,12.2285714 9.6,12.4 9.37142857,12.4 L6.8,12.4 C6.62857143,12.4 6.45714286,12.2857143 6.45714286,12 L6.45714286,11.1428571 C6.45714286,10.9142857 6.57142857,10.6857143 6.8,10.6857143 C6.97142857,10.6857143 7.14285714,10.5714286 7.14285714,10.2857143 L7.14285714,8.57142857 C7.14285714,8.34285714 7.02857143,8.11428571 6.8,8.11428571 C6.62857143,8.11428571 6.45714286,8 6.45714286,7.71428571 L6.45714286,6.85714286 C6.45714286,6.62857143 6.57142857,6.4 6.8,6.4 L8.74285714,6.4 C8.91428571,6.4 9.08571429,6.62857143 9.08571429,6.85714286 L9.08571429,10.2857143 C9.08571429,10.5142857 9.2,10.6857143 9.42857143,10.6857143 C9.6,10.6857143 9.77142857,10.9142857 9.77142857,11.1428571 L9.71428571,12 Z" id="形状"></path>
            </g>
        </g>
    </g>
</svg>