<?xml version="1.0" encoding="UTF-8"?>
<svg width="89px" height="90px" viewBox="0 0 89 90" version="1.1" xmlns="http://www.w3.org/2000/svg" xmlns:xlink="http://www.w3.org/1999/xlink">
    <title>头像</title>
    <g id="开放平台" stroke="none" stroke-width="1" fill="none" fill-rule="evenodd">
        <g id="控制台_Appkey管理_超管_没购买_申请前" transform="translate(-652.000000, -327.000000)">
            <g id="编组-42" transform="translate(628.000000, 306.070000)">
                <g id="头像" transform="translate(24.295627, 21.522814)">
                    <circle id="椭圆形" fill="#F4F8FE" opacity="0.872209821" cx="44.3521864" cy="44.3521864" r="44.3521864"></circle>
                    <g id="编组-43" opacity="0.4" transform="translate(19.704373, 12.852186)" fill="#87959C" fill-rule="nonzero">
                        <g id="gongsiguanli" opacity="0.308523996">
                            <path d="M49.4491093,19.2916031 L39.0960508,19.2916031 L39.0960508,7.93769084 C39.0960508,3.55534351 35.8799053,0 31.9312321,0 L7.16481874,0 C3.20916905,0 0,3.56307252 0,7.93769084 L0,60.75 L56,60.75 L56,26.5491412 C56,22.5455153 53.0629127,19.2916031 49.4491093,19.2916031 Z M14.4412607,56.0584924 L14.4412607,46.4822519 C14.4412607,46.0339695 14.7761306,45.6629771 15.1807649,45.6629771 L23.9083095,45.6629771 C24.3129438,45.6629771 24.6478136,46.0339695 24.6478136,46.4822519 L24.6478136,56.0584924 L14.4412607,56.0584924 Z M28.8406628,56.1048664 L28.8406628,46.4822519 C28.8406628,43.4756679 26.6291267,41.0255725 23.9152859,41.0255725 L15.1807649,41.0255725 C12.4669241,41.0255725 10.2553881,43.4756679 10.2553881,46.4822519 L10.2553881,56.1048664 L4.17889623,56.1048664 L4.17889623,7.93769084 C4.17889623,6.11364504 5.51837548,4.63740458 7.15784228,4.63740458 L31.9242556,4.63740458 C33.5706989,4.63740458 34.9032017,6.12137405 34.9032017,7.93769084 L34.9032017,19.2916031 L34.8962252,19.2916031 L34.8962252,56.1125954 L28.8406628,56.1125954 L28.8406628,56.1048664 Z M51.8141273,56.1048664 L39.0960508,56.1048664 L39.0960508,23.9290076 L49.4491093,23.9290076 C50.7537062,23.9290076 51.8211038,25.1038168 51.8211038,26.5568702 L51.8211038,56.1048664 L51.8141273,56.1048664 Z" id="形状"></path>
                            <path d="M26.8195804,14.2382812 L12.2174335,14.2382812 C11.0910597,14.2382812 10.1818182,15.3200677 10.1818182,16.6601912 C10.1818182,18.0003147 11.0910597,19.0821012 12.2174335,19.0821012 L26.8127951,19.0821012 C27.9391689,19.0821012 28.8484103,18.0003147 28.8484103,16.6601912 C28.8484103,15.3200677 27.9391689,14.2382812 26.8195804,14.2382812 Z M26.8195804,27.4296176 L12.2174335,27.4296176 C11.0910597,27.4296176 10.1818182,28.511404 10.1818182,29.8515275 C10.1818182,31.191651 11.0910597,32.2734375 12.2174335,32.2734375 L26.8127951,32.2734375 C27.9391689,32.2734375 28.8484478,31.191651 28.8484478,29.8515275 C28.8551957,28.511404 27.9391689,27.4296176 26.8195804,27.4296176 Z" id="形状"></path>
                        </g>
                    </g>
                </g>
            </g>
        </g>
    </g>
</svg>