<?xml version="1.0" encoding="UTF-8"?>
<svg width="320px" height="173px" viewBox="0 0 320 173" version="1.1" xmlns="http://www.w3.org/2000/svg" xmlns:xlink="http://www.w3.org/1999/xlink">
    <title>无数据提示图</title>
    <defs>
        <rect id="path-1" x="0" y="82" width="1920" height="1000"></rect>
        <filter x="-0.5%" y="-0.9%" width="100.9%" height="101.8%" filterUnits="objectBoundingBox" id="filter-2">
            <feOffset dx="0" dy="0" in="SourceAlpha" result="shadowOffsetOuter1"></feOffset>
            <feGaussianBlur stdDeviation="3" in="shadowOffsetOuter1" result="shadowBlurOuter1"></feGaussianBlur>
            <feColorMatrix values="0 0 0 0 0   0 0 0 0 0   0 0 0 0 0  0 0 0 0.2 0" type="matrix" in="shadowBlurOuter1"></feColorMatrix>
        </filter>
        <rect id="path-3" x="184" y="140" width="1736" height="942"></rect>
        <filter x="-0.5%" y="-0.4%" width="100.9%" height="101.7%" filterUnits="objectBoundingBox" id="filter-4">
            <feOffset dx="0" dy="4" in="SourceAlpha" result="shadowOffsetOuter1"></feOffset>
            <feGaussianBlur stdDeviation="2" in="shadowOffsetOuter1" result="shadowBlurOuter1"></feGaussianBlur>
            <feColorMatrix values="0 0 0 0 0   0 0 0 0 0   0 0 0 0 0  0 0 0 0.1 0" type="matrix" in="shadowBlurOuter1"></feColorMatrix>
        </filter>
        <path d="M41.1056552,3.29776552 L0,57.6814345 L320,57.6814345 L320,57.6807724 L292.69131,7.00535172 C290.807724,2.13384828 285.646345,0.612413793 282.096,3.88237241 L282.096,3.88237241 L255.060414,28.7867586 C247.460414,35.7868138 236.654345,34.6096552 230.228414,26.0822069 L230.228414,26.0822069 L213.793103,4.26968276 C211.032828,0.608441379 206.272552,0.49257931 203.392,4.01875862 L203.392,4.01875862 L174.178759,39.7896828 C170.870621,42.9437793 166.12469,42.6564414 163.097931,39.119669 L163.097931,39.119669 L142.234483,14.7462621 C138.679172,10.5917793 133.080828,10.339531 129.275034,14.160331 L129.275034,14.160331 L104.273103,39.2620138 C94.1853793,47.0055724 80.8645517,44.4519724 73.2882759,33.3239172 L73.2882759,33.3239172 L53.1023448,3.67051034 C51.5227586,1.35062069 49.248,0.17942069 46.9682759,0.17942069 L46.9682759,0.17942069 C44.8264828,0.17942069 42.6813793,1.21291034 41.1056552,3.29776552" id="path-5"></path>
        <linearGradient x1="50%" y1="100.000486%" x2="50%" y2="0.000146917179%" id="linearGradient-7">
            <stop stop-color="#FFFFFF" stop-opacity="0" offset="0%"></stop>
            <stop stop-color="#000000" stop-opacity="0.0501256556" offset="100%"></stop>
        </linearGradient>
        <polygon id="path-8" points="0.000255872064 0.000127936032 95.9522799 0.000127936032 95.9522799 9.5952024 0.000255872064 9.5952024"></polygon>
    </defs>
    <g id="商品刊登" stroke="none" stroke-width="1" fill="none" fill-rule="evenodd">
        <g id="商品刊登_平台铺货_待发布商品——初始提示" transform="translate(-849.000000, -348.000000)">
            <rect fill="#FFFFFF" x="0" y="0" width="1920" height="1080"></rect>
            <g id="矩形备份-21" opacity="0.2">
                <use fill="black" fill-opacity="1" filter="url(#filter-2)" xlink:href="#path-1"></use>
                <use fill="#EBECED" fill-rule="evenodd" xlink:href="#path-1"></use>
            </g>
            <g id="矩形备份-23">
                <use fill="black" fill-opacity="1" filter="url(#filter-4)" xlink:href="#path-3"></use>
                <use fill="#FFFFFF" fill-rule="evenodd" xlink:href="#path-3"></use>
            </g>
            <g id="无数据提示图" transform="translate(849.000000, 348.000000)">
                <g id="暂无数据" transform="translate(0.000000, 0.303030)" fill-rule="nonzero">
                    <g id="编组-3" transform="translate(73.939394, 0.000000)">
                        <polygon id="路径" fill="#CCCCCC" points="2.41364186 28.4827472 -6.23391029e-14 26.0695487 14.3222716 11.7486068 27.6706642 15.0909135 31.192498 9.22192939 26.8200162 6.5995042 38.7131313 -1.31240217e-14 38.4866168 13.5984007 34.1167947 10.9737591 29.2983765 19.0054904 15.3679615 15.5284277"></polygon>
                        <polygon id="路径" fill="#F2F2F2" points="11.4356535 44.3276745 18.2523632 44.3276745 18.2523632 19.7603907 16.4114349 19.3051455 11.4356535 24.2787106"></polygon>
                        <polygon id="路径" fill="#F2F2F2" points="1.2070426 32.0976691 1.2070426 44.3276745 8.02463892 44.3276745 8.02463892 27.6901684 2.41364186 33.302052"></polygon>
                        <polygon id="路径" fill="#F2F2F2" points="31.8911021 21.3091997 31.8911021 44.3276745 38.7131313 44.3276745 38.7131313 17.7120089 35.2888184 15.653875"></polygon>
                        <polygon id="路径" fill="#F2F2F2" points="28.4840771 44.3276745 28.4840771 22.3180976 21.6633778 20.6136985 21.6633778 44.3290043"></polygon>
                    </g>
                </g>
                <g id="编组" transform="translate(0.000000, 10.000000)">
                    <g transform="translate(0.000000, 49.696970)">
                        <mask id="mask-6" fill="white">
                            <use xlink:href="#path-5"></use>
                        </mask>
                        <g id="Clip-2"></g>
                        <path d="M0,57.6814345 L320,57.6814345 L292.69131,7.00535172 C290.807724,2.13384828 285.646345,0.612413793 282.096,3.88237241 L255.060414,28.7867586 C247.460414,35.7868138 236.654345,34.6096552 230.228414,26.0822069 L213.793103,4.26968276 C211.032828,0.608441379 206.272552,0.49257931 203.392,4.01875862 L174.178759,39.7896828 C170.870621,42.9437793 166.12469,42.6564414 163.097931,39.119669 L142.234483,14.7462621 C138.679172,10.5917793 133.080828,10.339531 129.275034,14.160331 L104.273103,39.2620138 C94.1853793,47.0055724 80.8645517,44.4519724 73.2882759,33.3239172 L53.1023448,3.67051034 C51.5227586,1.35062069 49.248,0.17942069 46.9682759,0.17942069 C44.8264828,0.17942069 42.6813793,1.21291034 41.1056552,3.29776552 L0,57.6814345 Z" id="Fill-1" fill="url(#linearGradient-7)" mask="url(#mask-6)"></path>
                    </g>
                    <g opacity="0.65" transform="translate(111.523511, 0.108690)">
                        <g transform="translate(0.000000, 150.303030)">
                            <mask id="mask-9" fill="white">
                                <use xlink:href="#path-8"></use>
                            </mask>
                            <g id="Clip-14"></g>
                            <path d="M95.9522799,4.79772914 C95.9522799,7.44728436 74.4724598,9.59533033 47.9762679,9.59533033 C21.4794363,9.59533033 0.000255872064,7.44728436 0.000255872064,4.79772914 C0.000255872064,2.14753423 21.4794363,0.000127936032 47.9762679,0.000127936032 C74.4724598,0.000127936032 95.9522799,2.14753423 95.9522799,4.79772914" id="Fill-13" fill="#F2F2F2" mask="url(#mask-9)"></path>
                        </g>
                        <g id="编组-2" transform="translate(7.272727, 0.000000)">
                            <polygon id="Fill-15" fill="#46B4DB" points="38.2150808 75.1892725 38.7753187 79.1063671 43.1847436 75.6385076"></polygon>
                            <path d="M17.4218316,79.4181545 C17.4218316,79.4181545 9.60984296,98.9526967 9.54454717,107.125118 C9.47794546,115.29754 9.70909257,124.42785 18.1152729,128.404364 C18.812632,133.682876 21.5191425,141.931693 28.0356626,143.446556 C34.5521827,144.960112 38.1427984,141.154673 39.5120511,138.188285 C40.8813039,135.221245 42.1702428,130.248317 42.1702428,130.248317 L46.3589679,130.568266 C46.3589679,130.568266 41.515979,139.881405 42.9244092,148.024444 C44.3328395,156.168135 50.6815494,157.270328 56.4210495,155.003258 C62.1598967,152.735535 66.9852558,143.027357 68.4354754,138.416168 C69.8856949,133.804979 73.7577354,118.984793 73.6682802,105.913881 C73.5762131,92.477313 71.1909578,86.1749631 71.1909578,86.1749631 C71.1909578,86.1749631 78.1469186,85.9477337 78.6967091,75.281666 C79.1407205,66.6560919 69.6584655,63.7471643 69.6584655,63.7471643 C69.6584655,63.7471643 66.6835892,68.376636 63.7818442,68.3178698" id="Fill-17" fill="#E6E6E6"></path>
                            <path d="M19.796509,134.438805 C19.796509,134.438805 30.1027968,136.404861 41.5138895,132.280779 C39.9781325,139.637003 38.4208278,143.59654 31.8801483,143.654653 C25.3394688,143.712767 21.1631499,140.257966 19.796509,134.438805" id="Fill-19" fill="#FFFFFF"></path>
                            <path d="M43.0300578,141.884093 C43.0300578,141.884093 50.6892543,147.519772 64.6749601,146.701616 C64.6749601,146.701616 61.0614909,155.811032 51.7150512,156.129676 C42.3679585,156.448972 42.4907146,144.981072 43.0300578,141.884093" id="Fill-21" fill="#FFFFFF"></path>
                            <path d="M17.9447203,121.868125 C17.9447203,121.868125 17.8761597,124.303658 18.2862173,127.576283 C18.6962748,130.848908 19.5856035,134.957972 21.5013821,138.303728 C25.4922609,145.098409 34.8902843,145.336738 38.992819,139.776802 C40.3640306,137.879306 41.3545678,134.084967 41.8579984,129.93542 C42.5227095,124.462326 42.3411872,118.371535 41.0711841,115.203383 C38.8387209,109.633652 31.5928468,108.658133 26.8837143,109.95556" id="Stroke-23" stroke="#B3B3B3" stroke-width="0.717264387" stroke-linecap="round" stroke-linejoin="round"></path>
                            <path d="M15.0606051,87.1261269 C10.0099756,96.4288185 8.85228118,107.714543 9.8715485,115.573545 C10.995942,124.255273 14.0648443,126.752837 18.1393017,128.081607" id="Stroke-25" stroke="#B3B3B3" stroke-width="0.717264387" stroke-linecap="round" stroke-linejoin="round"></path>
                            <path d="M69.9415881,63.6751431 C69.9415881,63.6751431 76.4750851,65.2004528 78.3131617,72.1864496 C79.7444454,77.6229773 77.0333641,84.4574879 71.4290263,86.6259611 C75.5074015,101.119015 73.3970414,119.342418 70.4652604,131.557955 C67.5582917,143.668365 60.3013173,159.40661 48.5990054,155.503881 C37.027938,151.644899 46.2940639,130.033951 46.2940639,130.033951 C46.2940639,130.033951 44.3038481,130.672544 41.7866953,130.493633" id="Stroke-27" stroke="#B3B3B3" stroke-width="0.717264387" stroke-linecap="round" stroke-linejoin="round"></path>
                            <path d="M31.5012368,92.2356533 C31.5012368,92.2356533 30.2625756,107.19949 42.1868933,108.803808 C54.1112109,110.408778 54.8934545,95.7485669 54.404389,92.4752888 C49.5587882,92.4635356 31.5012368,92.2356533 31.5012368,92.2356533" id="Fill-29" fill="#FFFFFF"></path>
                            <path d="M42.9490258,108.865103 C29.9466746,108.831754 31.4752491,92.2949418 31.4752491,92.2949418 L42.9901621,92.4836467 L54.506381,92.3530551 C54.506381,92.3530551 55.9513769,108.897703 42.9490258,108.865103 Z" id="Stroke-31" stroke="#B3B3B3" stroke-width="0.717264387" stroke-linecap="round" stroke-linejoin="round"></path>
                            <path d="M14.1570419,1.06326883 C14.1570419,1.06326883 6.32154685,2.36918468 13.504084,21.9579224 C13.504084,21.9579224 1.59674331,21.5223995 0.44492553,25.87567 C0.44492553,25.87567 -0.86099032,30.4463754 10.8922523,32.4052492 C10.8922523,32.4052492 8.17268257,47.7086241 8.92293122,51.4056719 L25.5792349,44.4151043 L39.0360448,49.0406583 L50.594706,47.3494972 L57.252265,43.5055339 L74.229171,50.0351132 C74.229171,50.0351132 72.2702972,34.364123 71.6173393,31.7522913 C70.9643814,29.7934175 82.99709,26.7708753 81.4117082,23.9167962 C78.1469186,18.0401749 66.9624023,20.1760002 67.6995918,20.6520066 C67.6995918,20.6520066 74.8821289,-1.54856287 65.0877601,0.410310909 C65.0877601,0.410310909 55.9463491,10.2046798 53.9874754,10.8576377 C53.9874754,10.8576377 49.1542808,9.24940234 42.8871906,8.89876393 C37.4846168,8.59644441 30.9236955,9.34408123 26.5632425,11.5105956 C26.5632425,11.5105956 23.7816418,9.21871331 21.3395791,6.93989016 C18.0891546,3.90755355 14.8779075,0.703489017 14.1570419,1.06326883" id="Fill-33" fill="#E6E6E6"></path>
                            <path d="M14.1615474,1.18249895 C14.1615474,1.18249895 8.35544549,1.93797127 11.2820029,14.2978118 C11.2820029,14.2978118 17.1899662,7.71011932 21.3597555,7.19362961 C21.3597555,7.19362961 14.6858726,0.253992782 14.1615474,1.18249895" id="Fill-35" fill="#FFFFFF"></path>
                            <path d="M65.8446689,0.17021828 C65.8446689,0.17021828 72.9233858,0.410506796 69.8499128,12.8095248 C69.8499128,12.8095248 63.406524,7.1875571 59.2112693,6.94008604 C59.2112693,6.94008604 64.4349327,-0.895409053 65.8446689,0.17021828" id="Fill-37" fill="#FFFFFF"></path>
                            <path d="M13.9230218,22.1408812 C13.9230218,22.1408812 5.95758811,5.04774868 13.2243568,1.25863384 C14.2945549,0.700354819 15.9040962,1.44733868 16.6484682,2.16232761 C18.1502714,3.60405871 20.9743145,7.62954432 26.6028118,11.2162422" id="Stroke-39" stroke="#B3B3B3" stroke-width="0.717264387" stroke-linecap="round" stroke-linejoin="round"></path>
                            <path d="M67.5867606,20.4166805 C67.5867606,20.4166805 74.5055028,3.32158911 66.9357616,0.180861494 C65.8727461,-0.260538063 64.8698027,0.164537546 63.9732915,0.825330966 C62.3108606,2.05158595 60.2207423,6.72937652 54.6164044,10.540039" id="Stroke-41" stroke="#B3B3B3" stroke-width="0.717264387" stroke-linecap="round" stroke-linejoin="round"></path>
                            <path d="M66.3458794,46.5197183 C63.6197801,45.9581745 60.2746766,42.6098063 57.1790031,43.1452318 C54.0833296,43.6800043 52.0023527,47.0316373 42.6056352,47.8471818 C32.4397332,48.7293279 28.8406292,43.8066781 25.2552372,44.1396867 C21.6704982,44.4726952 19.8931467,47.2921675 17.4595725,48.0900821 C15.0259984,48.8886497 11.9649316,49.5167952 9.33873483,52.0914083 C9.33873483,52.0914083 10.1542793,66.9213887 24.1027665,72.7425086 C31.4394017,75.8042283 38.9529885,76.1855557 45.2455441,75.5698164 C45.7959876,75.1336405 50.0389082,74.924694 53.409477,73.651426 C56.3373403,72.5440094 59.057563,71.2811887 60.4810113,71.7617658 C65.0876295,68.3180657 73.5760825,64.4003181 74.2531999,50.0025959 C70.3909537,46.4563814 69.0726317,47.0819151 66.3458794,46.5197183" id="Fill-43" fill="#FFFFFF"></path>
                            <path d="M18.5428297,42.2040582 C18.973782,43.3271458 17.934273,44.7714888 16.2209114,45.4290174 C14.5068968,46.0878519 12.7680699,45.7124011 12.3364647,44.5893135 C11.9048595,43.4668788 12.9450214,42.0231889 14.658383,41.3643543 C16.3723976,40.7055198 18.1112245,41.0816235 18.5428297,42.2040582" id="Fill-45" fill="#CCCCCC"></path>
                            <path d="M64.0681663,40.7413019 C63.7096924,41.8898549 64.8399625,43.2636783 66.5918487,43.8108571 C68.3443877,44.3586888 70.0557904,43.8715822 70.4149173,42.7236821 C70.7733912,41.5751291 69.643121,40.2013057 67.890582,39.6541269 C66.1380429,39.1062952 64.4266402,39.5934018 64.0681663,40.7413019" id="Fill-47" fill="#CCCCCC"></path>
                            <path d="M81.6265966,23.8868254 C81.6265966,23.8868254 77.2824676,22.1016385 69.7682278,25.1992709 C68.7613667,25.7764857 70.5478595,28.347834 71.4332705,30.4372993 C71.4332705,30.4372993 78.7783942,29.2423863 81.6265966,23.8868254" id="Fill-49" fill="#FFFFFF"></path>
                            <path d="M0.133791079,26.5049908 C0.133791079,26.5049908 4.35516406,24.4442556 12.052885,27.0534755 C13.0943529,27.5640886 11.4763232,30.2457868 10.7280334,32.3881417 C10.7280334,32.3881417 3.32087871,31.6666232 0.133791079,26.5049908" id="Fill-51" fill="#FFFFFF"></path>
                            <path d="M73.9926044,49.6467338 C73.9926044,49.6467338 71.9410106,47.3581163 68.7460874,46.9539353 C65.5505114,46.5497544 63.9396642,45.96601 62.5051156,44.7169015 C60.2759172,42.7077499 56.446319,42.3316462 53.43553,44.6359347 C48.9895395,48.0391514 41.5530017,47.8106161 41.5530017,47.8106161 C41.5530017,47.8106161 34.1465,48.5158107 29.4915629,45.4057721 C26.3390821,43.2986769 22.5401729,43.9196399 20.4448309,46.0685244 C19.0938609,47.4070881 17.5241501,48.092694 14.3612219,48.7012507 C11.1982937,49.3091546 8.96648352,52.1005497 8.96648352,52.1005497" id="Stroke-53" stroke="#B3B3B3" stroke-width="0.717264387" stroke-linecap="round" stroke-linejoin="round"></path>
                            <line x1="58.7424456" y1="48.0066994" x2="57.897518" y2="50.3233941" id="Stroke-55" stroke="#999999" stroke-width="2.6118317" stroke-linecap="round" stroke-linejoin="round"></line>
                            <line x1="24.1344349" y1="49.118752" x2="25.126931" y2="51.3766805" id="Stroke-57" stroke="#999999" stroke-width="2.6118317" stroke-linecap="round" stroke-linejoin="round"></line>
                            <path d="M80.0420637,24.5799403 C80.0570817,24.5766755 79.9388963,24.5100738 79.8677239,24.4722022 L79.5967463,24.3481402 C79.4041238,24.2691323 79.1997479,24.2025306 78.9881896,24.1418055 C78.561808,24.0268849 78.1132259,23.9413474 77.6522376,23.8923756 C76.731567,23.7918201 75.7710659,23.7976967 74.8125236,23.8975992 C73.8507166,23.9798719 72.8915214,24.1633531 71.9316733,24.3716467 L70.5030013,24.7418738 L69.0860826,25.1780497 L70.4168109,24.5120326 L71.7827989,23.9047818 C72.7099991,23.5358605 73.6548292,23.1858751 74.6394898,22.9338333 C75.6195796,22.6641617 76.6355822,22.4839453 77.6881503,22.4238732 C78.2137815,22.3925312 78.7498599,22.4023256 79.2963857,22.4558681 C79.5693221,22.4859042 79.8461763,22.5276935 80.1276011,22.5897245 C80.269293,22.6223724 80.4109849,22.6615499 80.5565945,22.7039921 C80.7139574,22.7588406 80.8249602,22.7856119 81.0561073,22.9037973 C81.5190545,23.1832633 81.666623,23.7859434 81.387157,24.2488906 C81.107038,24.7111848 80.5043579,24.8600592 80.0420637,24.5799403" id="Fill-59" fill="#B3B3B3"></path>
                            <path d="M45.5257936,75.5546678 C60.1984111,74.3767317 71.1961815,64.5262084 72.8834247,58.5496845 C76.0620239,47.2926899 71.4096987,30.7212707 71.4096987,30.7212707 C76.2024099,29.9990993 80.8240461,27.0379351 81.7381872,23.516533 C76.9115222,17.9650847 67.5866301,20.4169417 67.5866301,20.4169417" id="Stroke-61" stroke="#B3B3B3" stroke-width="0.717264387" stroke-linecap="round" stroke-linejoin="round"></path>
                            <path d="M13.9230218,22.1408812 C13.9230218,22.1408812 4.45970263,20.2930103 -1.1212234e-13,26.1422074 C1.13810566,29.5983137 5.93930528,32.2565054 10.7692351,32.6691748 C10.7692351,32.6691748 6.09862702,49.954277 11.0846137,60.5354602 C15.2818273,69.4411533 25.2152762,76.2828464 42.5036432,75.7271792 C43.5392344,75.6945313 44.5460955,75.6364181 45.5255324,75.5547983" id="Stroke-63" stroke="#B3B3B3" stroke-width="0.717264387" stroke-linecap="round" stroke-linejoin="round"></path>
                            <path d="M0.719167858,25.1181082 C0.953579753,25.0031876 1.06131781,24.9803341 1.22063954,24.9274445 C1.36363733,24.8902259 1.50663512,24.8497425 1.64571515,24.8229712 C1.92452819,24.763552 2.1974646,24.7282923 2.46778918,24.6976033 C3.00647947,24.6518955 3.53602835,24.6381841 4.0551299,24.6669143 C5.09463891,24.7198039 6.10411186,24.8699842 7.08354875,25.1043961 C8.06625043,25.322484 9.019569,25.6234976 9.95721658,25.9460588 L11.3447522,26.4729959 L12.7055165,27.0534755 L11.2722738,26.7074078 L9.83250161,26.4188004 C8.86808276,26.2594786 7.90496982,26.1236634 6.9431628,26.0740386 C5.98396761,26.006131 5.02673129,26.0283315 4.10540766,26.1354166 C3.6437664,26.1863474 3.19453135,26.2758026 2.76553799,26.3854995 C2.55397963,26.4475305 2.34568605,26.5108674 2.1524105,26.5879165 C2.05446681,26.6244821 1.96697045,26.6688833 1.87751522,26.7080607 C1.80764872,26.7439734 1.68619854,26.8092692 1.70448137,26.8112281 C1.23696349,27.0835115 0.637548118,26.9248428 0.365264663,26.4573249 C0.0936341664,25.9891541 0.251649984,25.3897387 0.719167858,25.1181082" id="Fill-65" fill="#B3B3B3"></path>
                            <path d="M58.4300052,12.7833412 C58.4300052,12.7833412 52.3352959,8.34126845 39.7815269,8.65077051" id="Stroke-67" stroke="#B3B3B3" stroke-width="0.717264387" stroke-linecap="round" stroke-linejoin="round"></path>
                            <path d="M39.7818533,8.65070521 C27.2352668,9.14825915 21.4376534,13.9716593 21.4376534,13.9716593" id="Stroke-69" stroke="#B3B3B3" stroke-width="0.717264387" stroke-linecap="round" stroke-linejoin="round"></path>
                            <path d="M58.5996437,12.5040058 C59.4334709,13.1034212 60.1673956,13.7687853 60.8536544,14.4961804 C61.5386073,15.2183519 62.1445522,16.0130017 62.6525535,16.8572763 C62.0537911,16.0737268 61.3734089,15.3620027 60.627731,14.7318983 C59.8898885,14.1017939 59.0834855,13.5245791 58.2601055,13.0616319 L58.2483523,13.0557553 C58.0909894,12.966953 58.0348351,12.7671479 58.1236373,12.609785 C58.2117866,12.4524221 58.4115918,12.3962678 58.5689546,12.48507 C58.579402,12.4902937 58.5891963,12.4968233 58.5996437,12.5040058" id="Fill-71" fill="#B3B3B3"></path>
                            <path d="M21.5965834,14.2403515 C20.8045454,14.7548824 20.0366669,15.3823749 19.3406137,16.0588393 C18.637378,16.7353038 18.0040089,17.4888172 17.4568301,18.3089324 C17.9099829,17.4339687 18.4630383,16.6021003 19.1003252,15.8374866 C19.7376121,15.0676492 20.4277887,14.356578 21.2224385,13.704926 C21.3621715,13.5906584 21.5685062,13.6109001 21.6827738,13.7506331 C21.7976944,13.8903661 21.7767997,14.0960478 21.6370668,14.2109684 C21.6279253,14.2188039 21.618131,14.2259865 21.6089896,14.2318631 L21.5965834,14.2403515 Z" id="Fill-73" fill="#B3B3B3"></path>
                            <polyline id="Stroke-75" stroke="#999999" stroke-width="1.30591585" stroke-linecap="round" stroke-linejoin="round" points="53.8867239 27.4302322 49.2781469 32.5677052 55.6888878 38.0270864"></polyline>
                            <polyline id="Stroke-77" stroke="#999999" stroke-width="1.30591585" stroke-linecap="round" stroke-linejoin="round" points="29.3428191 28.0564188 34.2067027 32.9522974 28.0826103 38.730975"></polyline>
                            <path d="M16.1159157,67.6649772 C16.1159157,67.6649772 12.4391096,68.5849949 9.58633648,70.9297668 C4.83149687,74.83772 1.39759114,81.7375263 14.0035968,87.8361534 C14.0035968,87.8361534 24.9981024,90.9096263 28.1179353,88.9847064 C31.2384213,87.0604393 26.9465288,69.4038041 26.9465288,69.4038041 L20.0336633,70.9297668 L16.1159157,67.6649772 Z" id="Fill-79" fill="#E6E6E6"></path>
                            <path d="M26.3088501,69.2660953 C26.3088501,69.2660953 23.5618561,79.2752873 26.5635037,89.212654 C26.5635037,89.212654 38.9364034,87.0683401 38.3291525,76.8162478 C37.7656499,67.3065685 26.3088501,69.2660953 26.3088501,69.2660953" id="Fill-81" fill="#FFFFFF"></path>
                            <path d="M19.4451523,71.0407043 C19.4451523,71.0407043 30.8967284,67.3273326 35.605208,71.2019849 C42.5951226,76.9519324 35.7534294,94.0568182 15.7990352,88.4766398 C15.7990352,88.4766398 6.68961923,85.9405512 5.72324151,80.1951744 C4.75816969,74.4497977 9.26292642,69.3123247 15.8140533,67.4820836" id="Stroke-83" stroke="#B3B3B3" stroke-width="0.717264387" stroke-linecap="round" stroke-linejoin="round"></path>
                            <path d="M64.80849,68.4116345 C64.80849,68.4116345 45.7865197,64.276452 45.6951056,77.8312056 L66.7027209,81.5759193 L64.80849,68.4116345 Z" id="Fill-85" fill="#E6E6E6"></path>
                            <path d="M57.813417,67.6828029 C57.813417,67.6828029 62.1562402,77.2727959 60.3495056,88.6897653 C60.3495056,88.6897653 46.5760111,89.2330263 45.6945179,77.831075 C44.8770146,67.2551155 57.813417,67.6828029 57.813417,67.6828029" id="Fill-87" fill="#FFFFFF"></path>
                            <path d="M71.6403234,85.9923961 C50.4714275,95.1677608 41.0094142,78.6263777 47.8498015,71.2250996 C52.4583785,66.23846 65.6709821,68.3553496 65.6709821,68.3553496" id="Stroke-89" stroke="#B3B3B3" stroke-width="0.717264387" stroke-linecap="round" stroke-linejoin="round"></path>
                            <path d="M44.3608514,62.0529344 C44.2687843,64.4277424 42.9112848,66.3023846 41.3285148,66.2410065 C39.7463977,66.1796285 38.5371196,64.2057367 38.6291867,61.8309287 C38.7212538,59.4567737 40.0787533,57.5814785 41.6615233,57.6435095 C43.2442933,57.7048876 44.4535714,59.6787794 44.3608514,62.0529344" id="Fill-91" fill="#999999"></path>
                        </g>
                    </g>
                </g>
            </g>
        </g>
    </g>
</svg>