<?xml version="1.0" encoding="UTF-8"?>
<svg width="64px" height="27px" viewBox="0 0 64 27" version="1.1" xmlns="http://www.w3.org/2000/svg" xmlns:xlink="http://www.w3.org/1999/xlink">
    <title>arrow.5c0862c8备份</title>
    <g id="开放平台" stroke="none" stroke-width="1" fill="none" fill-rule="evenodd">
        <g id="接入指南_对接流程" transform="translate(-984.000000, -390.000000)" fill="#E6E6E6" fill-rule="nonzero">
            <g id="对接流程icon" transform="translate(686.500000, 351.581200)">
                <g id="arrow.5c0862c8备份" transform="translate(297.516817, 38.876000)">
                    <path d="M22.496,13.124 C22.496,12.18 21.552,11.252 20.432,11.252 C19.312,11.252 18.368,12.196 18.368,13.124 C18.368,14.052 19.312,14.996 20.432,14.996 C21.376,15.012 22.496,14.068 22.496,13.124 Z M13.312,13.124 C13.312,12.18 12.368,11.252 11.248,11.252 C10.128,11.252 9.184,12.196 9.184,13.124 C9.184,14.052 10.128,14.996 11.248,14.996 C12.192,15.012 13.312,14.068 13.312,13.124 Z M4.128,13.124 C4.128,12.18 3.184,11.252 2.064,11.252 C0.944,11.252 0,12.196 0,13.124 C0,14.052 0.944,14.996 2.064,14.996 C3.008,15.012 4.128,14.068 4.128,13.124 Z M31.488,13.124 C31.488,12.18 30.736,11.252 29.616,11.252 C28.496,11.252 27.552,12.196 27.552,13.124 C27.552,14.052 28.496,14.996 29.616,14.996 C30.736,14.996 31.488,14.068 31.488,13.124 Z M63.184,13.316 L63.184,12.564 C63.184,12.372 62.992,12.372 62.992,12.196 L62.8,12.004 L62.8,11.812 L51.168,0.564 C50.416,-0.188 49.296,-0.188 48.544,0.564 C47.792,1.316 47.792,2.436 48.544,3.188 L56.8,11.252 L38.24,11.252 C37.296,11.252 36.368,12.196 36.368,13.124 C36.368,14.052 37.12,14.996 38.24,14.996 L56.8,14.996 L48.736,23.06 C47.984,23.812 47.984,24.932 48.736,25.684 C49.488,26.436 50.608,26.436 51.36,25.684 L62.8,14.628 C62.992,14.436 63.168,14.26 63.36,13.876 C63.376,13.7 63.376,13.508 63.184,13.316 L63.184,13.316 Z" id="形状"></path>
                </g>
            </g>
        </g>
    </g>
</svg>