<?xml version="1.0" encoding="UTF-8"?>
<svg width="181px" height="54px" viewBox="0 0 181 54" version="1.1" xmlns="http://www.w3.org/2000/svg" xmlns:xlink="http://www.w3.org/1999/xlink">
    <title>万里牛logo</title>
    <defs>
        <polygon id="path-1" points="0 0 53.100408 0 53.100408 53.1020597 0 53.1020597"></polygon>
        <polygon id="path-3" points="0 53.2224 179.503608 53.2224 179.503608 0 0 0"></polygon>
    </defs>
    <g id="开放平台" stroke="none" stroke-width="1" fill="none" fill-rule="evenodd">
        <g id="接入指南_对接流程" transform="translate(-766.000000, -65.000000)">
            <g id="编组" transform="translate(766.578404, 65.628800)">
                <g id="万里牛logo" transform="translate(-0.000000, 0.000000)">
                    <g id="分组" transform="translate(0.000000, 0.120340)">
                        <mask id="mask-2" fill="white">
                            <use xlink:href="#path-1"></use>
                        </mask>
                        <g id="Clip-2"></g>
                        <path d="M45.2431562,23.1829433 C45.2431562,24.2667926 44.3438812,25.1668542 43.2618672,25.1668542 L34.2966456,25.1668542 L34.2966456,41.9756941 C34.2966456,43.0587569 33.3942245,43.9588184 32.3127348,43.9588184 L20.3062333,43.9588184 C19.4866608,43.9588184 18.8031593,43.2750548 18.8031593,42.4554823 L18.8031593,38.8722776 C18.8031593,38.0508698 19.4787954,37.369728 20.3062333,37.369728 L27.4141766,37.369728 C27.5722707,37.369728 27.7070309,37.2370653 27.7070309,37.0768737 L27.7070309,20.0803134 C27.7070309,19.2591678 28.387124,18.5769772 29.2101048,18.5769772 L38.3622602,18.5769772 C38.5229761,18.5769772 38.6551145,18.4443145 38.6551145,18.2851716 L38.6551145,10.647364 C38.6551145,9.82438312 39.3331102,9.14402781 40.157402,9.14402781 L43.7400822,9.14402781 C44.5651605,9.14402781 45.2431562,9.82438312 45.2431562,10.647364 L45.2431562,23.1829433 Z M7.85428913,23.1829433 L7.85428913,10.647364 C7.85428913,9.82045043 8.53543097,9.14402781 9.35814965,9.14402781 L12.9389947,9.14402781 C13.7666948,9.14402781 14.4439039,9.82595619 14.4439039,10.647364 L14.4439039,18.2851716 C14.4439039,18.4419549 14.579975,18.5769772 14.7367582,18.5769772 L19.1778135,18.5769772 C19.9984348,18.5769772 20.6803632,19.2591678 20.6803632,20.0803134 L20.6803632,23.663518 C20.6803632,24.4791578 19.9960752,25.1668542 19.1778135,25.1668542 L9.8389865,25.1668542 C8.75251544,25.1668542 7.85428913,24.2683657 7.85428913,23.1829433 L7.85428913,23.1829433 Z M46.3650215,0 L6.73373475,0 C3.02940328,0 -7.86537931e-05,3.03105501 -7.86537931e-05,6.73617302 L-7.86537931e-05,46.3674598 C-7.86537931e-05,50.0710047 3.02940328,53.1020597 6.73373475,53.1020597 L46.3650215,53.1020597 C50.0685664,53.1020597 53.100408,50.0710047 53.100408,46.3674598 L53.100408,6.73617302 C53.100408,3.03105501 50.0685664,0 46.3650215,0 L46.3650215,0 Z" id="Fill-1" fill="#FFFFFF" mask="url(#mask-2)"></path>
                    </g>
                    <path d="M63.079608,14.0546834 L67.0814833,14.0546834 L67.0814833,37.176401 C67.0814833,39.3650136 66.2515534,41.3666461 64.2586036,42.561533 L66.6354992,44.9064 C69.2602821,43.7698131 72.4394165,40.9624855 72.3941525,36.5298491 L72.3941525,24.8175941 L93.41345,24.8175941 L93.41345,39.0764025 C93.41345,40.0409782 92.6125424,40.8301288 91.6361701,40.8301288 L83.8683251,40.8301288 L83.8683251,44.9064 L92.4314862,44.9064 L93.6120794,44.9064 C96.4253737,44.9064 98.7245217,42.6348019 98.7245217,39.8616139 L98.7245217,20.7428986 L72.3941525,20.7428986 L72.3941525,14.0546834 L99.670008,14.0546834 L99.670008,9.9792 L63.079608,9.9792 L63.079608,14.0546834 Z" id="Fill-3" fill="#FFFFFF"></path>
                    <mask id="mask-4" fill="white">
                        <use xlink:href="#path-3"></use>
                    </mask>
                    <g id="Clip-6"></g>
                    <path d="M108.896454,17.6918665 L118.635789,17.6918665 L118.635789,14.054946 L108.896454,14.054946 L108.896454,17.6918665 Z M118.635789,25.4050583 L110.924727,25.4050583 L110.674987,25.4050583 C109.698125,25.4050583 108.896454,24.6153825 108.896454,23.6523825 L108.896454,21.7665621 L118.635789,21.7665621 L118.635789,25.4050583 Z M123.947427,21.7665621 L133.685964,21.7665621 L133.685964,23.6523825 C133.685964,24.6153825 132.884292,25.4050583 131.905833,25.4050583 L131.656891,25.4050583 L123.947427,25.4050583 L123.947427,21.7665621 Z M123.947427,17.6918665 L133.685964,17.6918665 L133.685964,14.054946 L123.947427,14.054946 L123.947427,17.6918665 Z M123.947427,37.1932082 L138.99707,37.1932082 L138.99707,33.1177248 L123.947427,33.1177248 L123.947427,29.4797539 L133.882454,29.4797539 C136.693762,29.4797539 138.99707,27.2105192 138.99707,24.4360182 L138.99707,9.9792 L103.585614,9.9792 L103.585614,24.4360182 C103.585614,27.2105192 105.888655,29.4797539 108.699963,29.4797539 L118.635789,29.4797539 L118.635789,33.1177248 L103.585614,33.1177248 L103.585614,37.1932082 L118.635789,37.1932082 L118.635789,40.8303914 L102.996408,40.8303914 L102.996408,44.9064 L139.586808,44.9064 L139.586808,40.8303914 L123.947427,40.8303914 L123.947427,37.1932082 Z" id="Fill-5" fill="#FFFFFF" mask="url(#mask-4)"></path>
                    <path d="M178.323041,33.1174622 L164.47334,33.1174622 L164.47334,18.3985568 L179.1005,18.3985568 L179.1005,14.3312144 L164.47334,14.3312144 L164.47334,9.9792 L159.161585,9.9792 L159.161585,14.3312144 L158.502874,14.3312144 L149.064726,14.3312144 C148.7375,14.3312144 148.467519,14.066501 148.467519,13.7429624 L148.467519,9.9792 L143.155765,9.9792 L143.155765,16.2495987 C143.155765,17.4303045 144.13824,18.3985568 145.335315,18.3985568 L148.240405,18.3985568 L158.502874,18.3985568 L159.161585,18.3985568 L159.161585,33.1174622 L142.913208,33.1174622 L142.913208,37.1929456 L159.161585,37.1929456 L159.161585,44.9064 L160.341354,44.9064 L163.292772,44.9064 L164.47334,44.9064 L164.47334,37.1929456 L178.323041,37.1929456 L179.503608,37.1929456 L179.503608,33.1174622 L178.323041,33.1174622 Z" id="Fill-7" fill="#FFFFFF" mask="url(#mask-4)"></path>
                </g>
            </g>
        </g>
    </g>
</svg>