<?xml version="1.0" encoding="UTF-8"?>
<svg width="659px" height="99px" viewBox="0 0 659 99" version="1.1" xmlns="http://www.w3.org/2000/svg" xmlns:xlink="http://www.w3.org/1999/xlink">
    <title>对接流程icon</title>
    <g id="开放平台" stroke="none" stroke-width="1" fill="none" fill-rule="evenodd">
        <g id="接入指南_对接流程" transform="translate(-686.000000, -351.000000)">
            <g id="对接流程icon" transform="translate(686.500000, 351.581200)">
                <g id="编组-3">
                    <circle id="椭圆形" fill="#E7F0FD" opacity="0.454799107" cx="49" cy="49" r="49"></circle>
                    <g id="apply.77feedcf" transform="translate(21.000000, 17.587302)" fill-rule="nonzero">
                        <path d="M15.9047619,17.4285714 L39.968254,17.4285714 C41.015873,17.3968254 41.8412698,16.5079365 41.7777778,15.4603175 C41.7460317,14.4761905 40.952381,13.6825397 39.968254,13.6507937 L15.9047619,13.6507937 C14.8571429,13.6825397 14.031746,14.5714286 14.0952381,15.6190476 C14.1269841,16.6031746 14.9206349,17.3968254 15.9047619,17.4285714 Z" id="路径" fill="#126BF2"></path>
                        <path d="M15.9047619,31.968254 L39.968254,31.968254 C41.015873,31.9365079 41.8412698,31.047619 41.7777778,30 C41.7460317,29.015873 40.952381,28.2222222 39.968254,28.1904762 L15.9047619,28.1904762 C14.8571429,28.2222222 14.031746,29.1111111 14.0952381,30.1587302 C14.1269841,31.1428571 14.9206349,31.9365079 15.9047619,31.968254 Z" id="路径" fill="#126BF2"></path>
                        <path d="M15.9047619,45.8412698 L22.984127,45.8412698 C24.031746,45.8095238 24.8571429,44.9206349 24.7936508,43.8730159 C24.7619048,42.8888889 23.968254,42.0952381 22.984127,42.0634921 L15.9047619,42.0634921 C14.8571429,42.0952381 14.031746,42.984127 14.0952381,44.031746 C14.1269841,45.015873 14.9206349,45.8095238 15.9047619,45.8412698 Z" id="路径" fill="#126BF2"></path>
                        <path d="M47.5873016,0 L8.44444444,0 C3.77777778,0 0,3.77777778 0,8.41269841 L0,54.4126984 C0,59.047619 3.77777778,62.8253968 8.44444444,62.8253968 L29.968254,62.8253968 C31.015873,62.8253968 31.8730159,61.968254 31.8730159,60.9206349 C31.8730159,60.031746 31.2698413,59.2698413 30.4126984,59.047619 L8.44444444,58.984127 C5.9047619,58.984127 3.84126984,56.9206349 3.84126984,54.3809524 L3.84126984,8.41269841 C3.84126984,5.87301587 5.9047619,3.80952381 8.44444444,3.80952381 L47.5873016,3.80952381 C50.1269841,3.80952381 52.1904762,5.87301587 52.1904762,8.41269841 L52.1904762,36.7301587 C52.1904762,37.7777778 53.047619,38.6349206 54.0952381,38.6349206 C55.1428571,38.6349206 56,37.7777778 56,36.7301587 L56,8.41269841 C56,3.77777778 52.2222222,0 47.5873016,0 Z" id="路径" fill="#126BF2"></path>
                        <g id="编组" transform="translate(29.644304, 33.036948)" fill="#32CDAA">
                            <path d="M20.1334734,14.9630517 C19.6572829,14.9630517 19.1810925,14.7725755 18.8318861,14.3916231 L13.2128385,8.39162314 C12.5144258,7.62971838 12.5461718,6.4551152 13.2445845,5.72495647 C13.9747432,4.99479774 15.1176004,5.02654378 15.8160131,5.75670251 L21.4350607,11.7567025 C22.1334734,12.5186073 22.1017274,13.6932104 21.4033147,14.4233692 C21.0223623,14.7725755 20.5779179,14.9630517 20.1334734,14.9630517 L20.1334734,14.9630517 Z" id="路径"></path>
                            <path d="M0.101727375,21.0582898 C-0.215732943,20.0424168 0.260457534,18.9630517 0.831886105,18.296385 L15.752521,0.867813616 C16.1652194,0.39162314 16.736648,0.0741628227 17.3715686,0.0106707592 C18.0382353,-0.0528213043 18.704902,0.169400918 19.1810925,0.613845362 L25.3398226,6.29638504 C26.3239496,7.21701997 26.4191877,8.80432155 25.4985528,9.8519406 L21.752521,14.264639 C21.0858544,15.0582898 19.9429972,15.1217819 19.1810925,14.4233692 C18.4191877,13.7249565 18.3556956,12.5503533 19.0223623,11.7567025 L22.0064893,8.26463901 L17.689029,4.29638504 L3.72077499,20.6138454 C3.72077499,20.7090835 3.72077499,20.8043216 3.72077499,20.8995596 L3.81601309,25.5027343 L7.68902896,25.0265438 C7.75252103,24.9630517 7.81601309,24.8995596 7.87950515,24.8360676 L15.5302988,16.0741628 C16.1969655,15.3122581 17.3398226,15.248766 18.1017274,15.9471787 C18.8318861,16.6455914 18.8953782,17.8519406 18.2287115,18.6138454 L10.5779179,27.3440041 C10.3874417,27.5662263 10.1017274,27.8836866 9.78426706,28.1376549 C9.05410833,28.7408295 8.41918769,28.8678136 7.94299722,28.8043216 L0.292203565,29.6932104 L0.101727375,21.0582898 Z" id="形状"></path>
                        </g>
                    </g>
                </g>
                <g id="编组-4" transform="translate(186.800000, 0.000000)">
                    <circle id="椭圆形备份" fill="#E7F0FD" opacity="0.454799107" cx="49" cy="49" r="49"></circle>
                    <g id="create.e179944e" transform="translate(21.000000, 23.310084)" fill-rule="nonzero">
                        <path d="M6.33846154,46.7644482 C4.76923077,46.7644482 3.50769231,45.5029098 3.50769231,43.933679 L3.50769231,43.933679 L3.50769231,14.5490636 C3.50769231,12.9798328 4.76923077,11.7182944 6.33846154,11.7182944 L49.6923077,11.7182944 C51.2615385,11.7182944 52.5230769,12.9798328 52.5230769,14.5490636 L52.5230769,14.5490636 L52.5230769,21.0721405 C53.7846154,21.8413713 54.9538462,22.7644482 56,23.7798328 L56,10.9182944 C56,6.67214054 52.1230769,7.04137131 52.1230769,7.04137131 C52.1230769,7.04137131 28.9538462,7.07214054 30.1846154,7.04137131 C28.8615385,7.07214054 28.2153846,6.333679 28.2153846,6.333679 C28.2153846,6.333679 27.2923077,4.733679 25.6307692,2.24137131 C23.8769231,-0.404782537 21.8769231,0.0259866941 21.8769231,0.0259866941 L4.8,0.0259866941 C0.0615384615,0.0259866941 0,4.57983285 0,4.57983285 L0,45.7182944 C0,50.7952175 3.81538462,50.1490636 3.81538462,50.1490636 L25.0153846,50.1490636 C24.2461538,49.0721405 23.6,47.9029098 23.0461538,46.6721405 L6.33846154,46.7644482 L6.33846154,46.7644482 Z" id="路径" fill="#126BF2"></path>
                        <path d="M41.8153846,25.5952175 C34.7076923,25.5952175 28.9230769,31.3490636 28.9230769,38.4875252 C28.9230769,45.6259867 34.6769231,51.3798328 41.8153846,51.3798328 C48.9538462,51.3798328 54.7076923,45.6259867 54.7076923,38.4875252 C54.7076923,31.3490636 48.9230769,25.5952175 41.8153846,25.5952175 L41.8153846,25.5952175 Z M48.4,40.2721405 L43.6,40.2721405 L43.6,45.0721405 C43.6,46.0567559 42.8,46.8567559 41.8153846,46.8567559 C40.8307692,46.8567559 40.0307692,46.0567559 40.0307692,45.0721405 L40.0307692,40.2721405 L35.2307692,40.2721405 C34.2461538,40.2721405 33.4461538,39.4721405 33.4461538,38.4875252 C33.4461538,37.5029098 34.2461538,36.7029098 35.2307692,36.7029098 L40.0307692,36.7029098 L40.0307692,31.9029098 C40.0307692,30.9182944 40.8307692,30.1182944 41.8153846,30.1182944 C42.8,30.1182944 43.6,30.9182944 43.6,31.9029098 L43.6,36.7029098 L48.4,36.7029098 C49.3846154,36.7029098 50.1846154,37.5029098 50.1846154,38.4875252 L50.1846154,38.4875252 C50.2153846,39.4721405 49.3846154,40.2721405 48.4,40.2721405 L48.4,40.2721405 Z" id="形状" fill="#32CDAA"></path>
                    </g>
                </g>
                <g id="编组-5" transform="translate(373.600000, 0.000000)">
                    <circle id="椭圆形备份-2" fill="#E7F0FD" opacity="0.454799107" cx="49" cy="49" r="49"></circle>
                    <g id="check.eccfd0e4" transform="translate(21.000000, 17.587302)" fill-rule="nonzero">
                        <path d="M15.9047619,17.4285714 L39.968254,17.4285714 C41.015873,17.3968254 41.8412698,16.5079365 41.7777778,15.4603175 C41.7460317,14.4761905 40.952381,13.6825397 39.968254,13.6507937 L15.9047619,13.6507937 C14.8571429,13.6825397 14.031746,14.5714286 14.0952381,15.6190476 C14.1269841,16.6031746 14.9206349,17.3968254 15.9047619,17.4285714 Z" id="路径" fill="#126BF2"></path>
                        <path d="M15.9047619,31.968254 L33.015873,31.968254 L36.8253968,31.015873 C37.8730159,30.984127 41.8412698,31.047619 41.7777778,30 C41.7460317,29.015873 40.952381,28.2222222 39.968254,28.1904762 L15.9047619,28.1904762 C14.8571429,28.2222222 14.031746,29.1111111 14.0952381,30.1587302 C14.1269841,31.1428571 14.9206349,31.9365079 15.9047619,31.968254 Z" id="路径" fill="#126BF2"></path>
                        <path d="M15.9047619,45.8730159 L22.984127,45.8730159 C24.031746,45.8412698 24.8571429,44.952381 24.7936508,43.9047619 C24.7619048,42.9206349 23.968254,42.1269841 22.984127,42.0952381 L15.9047619,42.0952381 C14.8571429,42.1269841 14.031746,43.015873 14.0952381,44.0634921 C14.1269841,45.015873 14.9206349,45.8412698 15.9047619,45.8730159 Z" id="路径" fill="#126BF2"></path>
                        <path d="M47.5873016,0 L8.44444444,0 C3.77777778,0 0,3.77777778 0,8.41269841 L0,54.4126984 C0,59.047619 3.77777778,62.8253968 8.44444444,62.8253968 L29.968254,62.8253968 C31.015873,62.8253968 31.8730159,61.968254 31.8730159,60.9206349 C31.8730159,60.031746 31.2698413,59.2698413 30.4126984,59.047619 L8.44444444,58.984127 C5.9047619,58.984127 3.84126984,56.9206349 3.84126984,54.3809524 L3.84126984,8.41269841 C3.84126984,5.87301587 5.9047619,3.80952381 8.44444444,3.80952381 L47.5873016,3.80952381 C50.1269841,3.80952381 52.1904762,5.87301587 52.1904762,8.41269841 L52.1904762,36.7301587 C52.1904762,37.7777778 53.047619,38.6349206 54.0952381,38.6349206 C55.1428571,38.6349206 56,37.7777778 56,36.7301587 L56,8.41269841 C56,3.77777778 52.2222222,0 47.5873016,0 Z" id="路径" fill="#126BF2"></path>
                        <path d="M42.0634921,39.4920635 C41.047619,39.4920635 40.2539683,40.3174603 40.2539683,41.3015873 C40.2539683,44.8888889 37.3333333,47.8095238 33.7460317,47.8095238 C32.7301587,47.8412698 31.9365079,48.6666667 31.968254,49.6825397 C32,50.6666667 32.7619048,51.4285714 33.7460317,51.4603175 C36.4444444,51.4603175 39.015873,50.4126984 40.9206349,48.4761905 C42.8253968,46.5714286 43.9047619,44 43.9047619,41.3015873 C43.8730159,40.3174603 43.047619,39.4920635 42.0634921,39.4920635 L42.0634921,39.4920635 Z" id="路径" fill="#126BF2"></path>
                        <path d="M52.2857143,61.015873 C51.7777778,61.015873 51.3015873,60.8253968 50.984127,60.4761905 L44.6984127,54.3174603 L44.4444444,54.5079365 C42.0634921,56 39.3650794,56.7936508 36.5714286,56.7936508 C34.6031746,56.7936508 32.6984127,56.4126984 30.9206349,55.6825397 C29.1746032,54.952381 27.6507937,53.9365079 26.2857143,52.6349206 C24.952381,51.3333333 23.9047619,49.8095238 23.1746032,48.1269841 C22.4126984,46.3809524 22.031746,44.5079365 22.031746,42.6031746 C22.031746,38.8253968 23.5555556,35.2698413 26.3174603,32.6031746 C27.6507937,31.3015873 29.2063492,30.2539683 30.952381,29.5555556 C32.7619048,28.7936508 34.6666667,28.4126984 36.6349206,28.4126984 C38.6031746,28.4126984 40.5079365,28.7936508 42.2857143,29.5238095 C44.031746,30.2539683 45.5555556,31.2698413 46.9206349,32.5714286 C48.2539683,33.8730159 49.3015873,35.3968254 50.031746,37.0793651 C50.7936508,38.8253968 51.1746032,40.6984127 51.1746032,42.6031746 C51.1746032,45.9365079 50,49.1111111 47.8095238,51.7142857 L47.5555556,52 L53.6825397,57.968254 L53.6825397,57.968254 C54.031746,58.2857143 54.2539683,58.7619048 54.2539683,59.2380952 C54.2539683,59.7142857 54.031746,60.1904762 53.6825397,60.5079365 L53.6825397,60.5079365 C53.2698413,60.8253968 52.7936508,61.015873 52.2857143,61.015873 L52.2857143,61.015873 Z M36.5396825,31.6825397 C30.3809524,31.6825397 25.3968254,36.5396825 25.3968254,42.5396825 C25.3968254,48.5714286 30.4126984,53.4603175 36.5396825,53.4603175 C42.6666667,53.4603175 47.6825397,48.5714286 47.6825397,42.6031746 C47.6825397,36.6031746 42.6666667,31.6825397 36.5396825,31.6825397 Z" id="形状" fill="#32CDAA"></path>
                    </g>
                </g>
                <g id="编组-6" transform="translate(560.400000, 0.000000)">
                    <circle id="椭圆形备份-3" fill="#E7F0FD" opacity="0.454799107" cx="49" cy="49" r="49"></circle>
                    <g id="call.34d1c7da" transform="translate(18.600000, 18.600000)" fill-rule="nonzero">
                        <path d="M58.619798,32.580202 C59.8173737,32.580202 60.8,31.5975758 60.8,30.4 C60.8,29.2024242 59.8173737,28.219798 58.619798,28.219798 L2.24161616,28.219798 C1.01333333,28.219798 0,29.2024242 0,30.4 C0,31.5975758 1.01333333,32.580202 2.24161616,32.580202 L58.619798,32.580202 Z M17.0731313,10.8088889 C17.1652525,10.8088889 17.2573737,10.870303 17.3494949,10.870303 L58.619798,10.870303 C59.8173737,10.870303 60.8,9.88767677 60.8,8.69010101 C60.8,7.49252525 59.8173737,6.50989899 58.619798,6.50989899 L17.380202,6.50989899 C17.2880808,6.50989899 17.1959596,6.54060606 17.1038384,6.57131313 C16.1212121,2.70222222 12.6513131,0 8.69010101,0 C3.89979798,0 0,3.89979798 0,8.69010101 C0,13.480404 3.89979798,17.380202 8.69010101,17.380202 C12.6513131,17.3494949 16.1212121,14.6472727 17.0731313,10.8088889 Z M4.32969697,8.69010101 C4.32969697,6.29494949 6.26424242,4.36040404 8.65939394,4.36040404 C11.0545455,4.36040404 12.9890909,6.29494949 12.9890909,8.69010101 C12.9890909,11.0852525 11.0545455,13.019798 8.65939394,13.019798 C6.29494949,13.019798 4.32969697,11.0852525 4.32969697,8.69010101 Z M52.109899,60.8 C56.900202,60.8 60.8,56.900202 60.8,52.109899 C60.8,47.319596 56.900202,43.419798 52.109899,43.419798 C48.1486869,43.419798 44.6787879,46.1220202 43.7268687,49.9911111 C43.6347475,49.9911111 43.5426263,49.929697 43.4505051,49.929697 L2.18020202,49.929697 C0.982626263,49.929697 0,50.9123232 0,52.109899 C0,53.3074747 0.982626263,54.290101 2.18020202,54.290101 L43.4505051,54.290101 C43.5426263,54.290101 43.6347475,54.2593939 43.7268687,54.2286869 C44.6787879,58.0977778 48.1486869,60.8 52.109899,60.8 Z M47.780202,52.109899 C47.780202,49.7147475 49.7147475,47.780202 52.109899,47.780202 C54.5050505,47.780202 56.439596,49.7147475 56.439596,52.109899 C56.439596,54.5050505 54.5050505,56.439596 52.109899,56.439596 C49.7147475,56.439596 47.780202,54.5050505 47.780202,52.109899 Z" id="形状" fill="#126BF2"></path>
                        <circle id="椭圆形" fill="#32CDAA" cx="30.4307071" cy="30.4" r="8.69010101"></circle>
                    </g>
                </g>
                <g id="arrow.5c0862c8" transform="translate(110.716817, 38.876000)" fill="#E6E6E6" fill-rule="nonzero">
                    <path d="M22.496,13.124 C22.496,12.18 21.552,11.252 20.432,11.252 C19.312,11.252 18.368,12.196 18.368,13.124 C18.368,14.052 19.312,14.996 20.432,14.996 C21.376,15.012 22.496,14.068 22.496,13.124 Z M13.312,13.124 C13.312,12.18 12.368,11.252 11.248,11.252 C10.128,11.252 9.184,12.196 9.184,13.124 C9.184,14.052 10.128,14.996 11.248,14.996 C12.192,15.012 13.312,14.068 13.312,13.124 Z M4.128,13.124 C4.128,12.18 3.184,11.252 2.064,11.252 C0.944,11.252 0,12.196 0,13.124 C0,14.052 0.944,14.996 2.064,14.996 C3.008,15.012 4.128,14.068 4.128,13.124 Z M31.488,13.124 C31.488,12.18 30.736,11.252 29.616,11.252 C28.496,11.252 27.552,12.196 27.552,13.124 C27.552,14.052 28.496,14.996 29.616,14.996 C30.736,14.996 31.488,14.068 31.488,13.124 Z M63.184,13.316 L63.184,12.564 C63.184,12.372 62.992,12.372 62.992,12.196 L62.8,12.004 L62.8,11.812 L51.168,0.564 C50.416,-0.188 49.296,-0.188 48.544,0.564 C47.792,1.316 47.792,2.436 48.544,3.188 L56.8,11.252 L38.24,11.252 C37.296,11.252 36.368,12.196 36.368,13.124 C36.368,14.052 37.12,14.996 38.24,14.996 L56.8,14.996 L48.736,23.06 C47.984,23.812 47.984,24.932 48.736,25.684 C49.488,26.436 50.608,26.436 51.36,25.684 L62.8,14.628 C62.992,14.436 63.168,14.26 63.36,13.876 C63.376,13.7 63.376,13.508 63.184,13.316 L63.184,13.316 Z" id="形状"></path>
                </g>
                <g id="arrow.5c0862c8备份" transform="translate(297.516817, 38.876000)" fill="#E6E6E6" fill-rule="nonzero">
                    <path d="M22.496,13.124 C22.496,12.18 21.552,11.252 20.432,11.252 C19.312,11.252 18.368,12.196 18.368,13.124 C18.368,14.052 19.312,14.996 20.432,14.996 C21.376,15.012 22.496,14.068 22.496,13.124 Z M13.312,13.124 C13.312,12.18 12.368,11.252 11.248,11.252 C10.128,11.252 9.184,12.196 9.184,13.124 C9.184,14.052 10.128,14.996 11.248,14.996 C12.192,15.012 13.312,14.068 13.312,13.124 Z M4.128,13.124 C4.128,12.18 3.184,11.252 2.064,11.252 C0.944,11.252 0,12.196 0,13.124 C0,14.052 0.944,14.996 2.064,14.996 C3.008,15.012 4.128,14.068 4.128,13.124 Z M31.488,13.124 C31.488,12.18 30.736,11.252 29.616,11.252 C28.496,11.252 27.552,12.196 27.552,13.124 C27.552,14.052 28.496,14.996 29.616,14.996 C30.736,14.996 31.488,14.068 31.488,13.124 Z M63.184,13.316 L63.184,12.564 C63.184,12.372 62.992,12.372 62.992,12.196 L62.8,12.004 L62.8,11.812 L51.168,0.564 C50.416,-0.188 49.296,-0.188 48.544,0.564 C47.792,1.316 47.792,2.436 48.544,3.188 L56.8,11.252 L38.24,11.252 C37.296,11.252 36.368,12.196 36.368,13.124 C36.368,14.052 37.12,14.996 38.24,14.996 L56.8,14.996 L48.736,23.06 C47.984,23.812 47.984,24.932 48.736,25.684 C49.488,26.436 50.608,26.436 51.36,25.684 L62.8,14.628 C62.992,14.436 63.168,14.26 63.36,13.876 C63.376,13.7 63.376,13.508 63.184,13.316 L63.184,13.316 Z" id="形状"></path>
                </g>
                <g id="arrow.5c0862c8备份-2" transform="translate(484.316817, 38.876000)" fill="#E6E6E6" fill-rule="nonzero">
                    <path d="M22.496,13.124 C22.496,12.18 21.552,11.252 20.432,11.252 C19.312,11.252 18.368,12.196 18.368,13.124 C18.368,14.052 19.312,14.996 20.432,14.996 C21.376,15.012 22.496,14.068 22.496,13.124 Z M13.312,13.124 C13.312,12.18 12.368,11.252 11.248,11.252 C10.128,11.252 9.184,12.196 9.184,13.124 C9.184,14.052 10.128,14.996 11.248,14.996 C12.192,15.012 13.312,14.068 13.312,13.124 Z M4.128,13.124 C4.128,12.18 3.184,11.252 2.064,11.252 C0.944,11.252 0,12.196 0,13.124 C0,14.052 0.944,14.996 2.064,14.996 C3.008,15.012 4.128,14.068 4.128,13.124 Z M31.488,13.124 C31.488,12.18 30.736,11.252 29.616,11.252 C28.496,11.252 27.552,12.196 27.552,13.124 C27.552,14.052 28.496,14.996 29.616,14.996 C30.736,14.996 31.488,14.068 31.488,13.124 Z M63.184,13.316 L63.184,12.564 C63.184,12.372 62.992,12.372 62.992,12.196 L62.8,12.004 L62.8,11.812 L51.168,0.564 C50.416,-0.188 49.296,-0.188 48.544,0.564 C47.792,1.316 47.792,2.436 48.544,3.188 L56.8,11.252 L38.24,11.252 C37.296,11.252 36.368,12.196 36.368,13.124 C36.368,14.052 37.12,14.996 38.24,14.996 L56.8,14.996 L48.736,23.06 C47.984,23.812 47.984,24.932 48.736,25.684 C49.488,26.436 50.608,26.436 51.36,25.684 L62.8,14.628 C62.992,14.436 63.168,14.26 63.36,13.876 C63.376,13.7 63.376,13.508 63.184,13.316 L63.184,13.316 Z" id="形状"></path>
                </g>
            </g>
        </g>
    </g>
</svg>