<?xml version="1.0" encoding="UTF-8"?>
<svg width="99px" height="99px" viewBox="0 0 99 99" version="1.1" xmlns="http://www.w3.org/2000/svg" xmlns:xlink="http://www.w3.org/1999/xlink">
    <title>编组 6</title>
    <g id="开放平台" stroke="none" stroke-width="1" fill="none" fill-rule="evenodd">
        <g id="接入指南_对接流程" transform="translate(-1246.000000, -351.000000)">
            <g id="对接流程icon" transform="translate(686.500000, 351.581200)">
                <g id="编组-6" transform="translate(560.400000, 0.000000)">
                    <circle id="椭圆形备份-3" fill="#E7F0FD" opacity="0.454799107" cx="49" cy="49" r="49"></circle>
                    <g id="call.34d1c7da" transform="translate(18.600000, 18.600000)" fill-rule="nonzero">
                        <path d="M58.619798,32.580202 C59.8173737,32.580202 60.8,31.5975758 60.8,30.4 C60.8,29.2024242 59.8173737,28.219798 58.619798,28.219798 L2.24161616,28.219798 C1.01333333,28.219798 0,29.2024242 0,30.4 C0,31.5975758 1.01333333,32.580202 2.24161616,32.580202 L58.619798,32.580202 Z M17.0731313,10.8088889 C17.1652525,10.8088889 17.2573737,10.870303 17.3494949,10.870303 L58.619798,10.870303 C59.8173737,10.870303 60.8,9.88767677 60.8,8.69010101 C60.8,7.49252525 59.8173737,6.50989899 58.619798,6.50989899 L17.380202,6.50989899 C17.2880808,6.50989899 17.1959596,6.54060606 17.1038384,6.57131313 C16.1212121,2.70222222 12.6513131,0 8.69010101,0 C3.89979798,0 0,3.89979798 0,8.69010101 C0,13.480404 3.89979798,17.380202 8.69010101,17.380202 C12.6513131,17.3494949 16.1212121,14.6472727 17.0731313,10.8088889 Z M4.32969697,8.69010101 C4.32969697,6.29494949 6.26424242,4.36040404 8.65939394,4.36040404 C11.0545455,4.36040404 12.9890909,6.29494949 12.9890909,8.69010101 C12.9890909,11.0852525 11.0545455,13.019798 8.65939394,13.019798 C6.29494949,13.019798 4.32969697,11.0852525 4.32969697,8.69010101 Z M52.109899,60.8 C56.900202,60.8 60.8,56.900202 60.8,52.109899 C60.8,47.319596 56.900202,43.419798 52.109899,43.419798 C48.1486869,43.419798 44.6787879,46.1220202 43.7268687,49.9911111 C43.6347475,49.9911111 43.5426263,49.929697 43.4505051,49.929697 L2.18020202,49.929697 C0.982626263,49.929697 0,50.9123232 0,52.109899 C0,53.3074747 0.982626263,54.290101 2.18020202,54.290101 L43.4505051,54.290101 C43.5426263,54.290101 43.6347475,54.2593939 43.7268687,54.2286869 C44.6787879,58.0977778 48.1486869,60.8 52.109899,60.8 Z M47.780202,52.109899 C47.780202,49.7147475 49.7147475,47.780202 52.109899,47.780202 C54.5050505,47.780202 56.439596,49.7147475 56.439596,52.109899 C56.439596,54.5050505 54.5050505,56.439596 52.109899,56.439596 C49.7147475,56.439596 47.780202,54.5050505 47.780202,52.109899 Z" id="形状" fill="#126BF2"></path>
                        <circle id="椭圆形" fill="#32CDAA" cx="30.4307071" cy="30.4" r="8.69010101"></circle>
                    </g>
                </g>
            </g>
        </g>
    </g>
</svg>