<?xml version="1.0" encoding="UTF-8"?>
<svg width="99px" height="99px" viewBox="0 0 99 99" version="1.1" xmlns="http://www.w3.org/2000/svg" xmlns:xlink="http://www.w3.org/1999/xlink">
    <title>编组 4</title>
    <g id="开放平台" stroke="none" stroke-width="1" fill="none" fill-rule="evenodd">
        <g id="接入指南_对接流程" transform="translate(-873.000000, -351.000000)">
            <g id="对接流程icon" transform="translate(686.500000, 351.581200)">
                <g id="编组-4" transform="translate(186.800000, 0.000000)">
                    <circle id="椭圆形备份" fill="#E7F0FD" opacity="0.454799107" cx="49" cy="49" r="49"></circle>
                    <g id="create.e179944e" transform="translate(21.000000, 23.310084)" fill-rule="nonzero">
                        <path d="M6.33846154,46.7644482 C4.76923077,46.7644482 3.50769231,45.5029098 3.50769231,43.933679 L3.50769231,43.933679 L3.50769231,14.5490636 C3.50769231,12.9798328 4.76923077,11.7182944 6.33846154,11.7182944 L49.6923077,11.7182944 C51.2615385,11.7182944 52.5230769,12.9798328 52.5230769,14.5490636 L52.5230769,14.5490636 L52.5230769,21.0721405 C53.7846154,21.8413713 54.9538462,22.7644482 56,23.7798328 L56,10.9182944 C56,6.67214054 52.1230769,7.04137131 52.1230769,7.04137131 C52.1230769,7.04137131 28.9538462,7.07214054 30.1846154,7.04137131 C28.8615385,7.07214054 28.2153846,6.333679 28.2153846,6.333679 C28.2153846,6.333679 27.2923077,4.733679 25.6307692,2.24137131 C23.8769231,-0.404782537 21.8769231,0.0259866941 21.8769231,0.0259866941 L4.8,0.0259866941 C0.0615384615,0.0259866941 0,4.57983285 0,4.57983285 L0,45.7182944 C0,50.7952175 3.81538462,50.1490636 3.81538462,50.1490636 L25.0153846,50.1490636 C24.2461538,49.0721405 23.6,47.9029098 23.0461538,46.6721405 L6.33846154,46.7644482 L6.33846154,46.7644482 Z" id="路径" fill="#126BF2"></path>
                        <path d="M41.8153846,25.5952175 C34.7076923,25.5952175 28.9230769,31.3490636 28.9230769,38.4875252 C28.9230769,45.6259867 34.6769231,51.3798328 41.8153846,51.3798328 C48.9538462,51.3798328 54.7076923,45.6259867 54.7076923,38.4875252 C54.7076923,31.3490636 48.9230769,25.5952175 41.8153846,25.5952175 L41.8153846,25.5952175 Z M48.4,40.2721405 L43.6,40.2721405 L43.6,45.0721405 C43.6,46.0567559 42.8,46.8567559 41.8153846,46.8567559 C40.8307692,46.8567559 40.0307692,46.0567559 40.0307692,45.0721405 L40.0307692,40.2721405 L35.2307692,40.2721405 C34.2461538,40.2721405 33.4461538,39.4721405 33.4461538,38.4875252 C33.4461538,37.5029098 34.2461538,36.7029098 35.2307692,36.7029098 L40.0307692,36.7029098 L40.0307692,31.9029098 C40.0307692,30.9182944 40.8307692,30.1182944 41.8153846,30.1182944 C42.8,30.1182944 43.6,30.9182944 43.6,31.9029098 L43.6,36.7029098 L48.4,36.7029098 C49.3846154,36.7029098 50.1846154,37.5029098 50.1846154,38.4875252 L50.1846154,38.4875252 C50.2153846,39.4721405 49.3846154,40.2721405 48.4,40.2721405 L48.4,40.2721405 Z" id="形状" fill="#32CDAA"></path>
                    </g>
                </g>
            </g>
        </g>
    </g>
</svg>