<?xml version="1.0" encoding="UTF-8"?>
<svg width="588px" height="119px" viewBox="0 0 588 119" version="1.1" xmlns="http://www.w3.org/2000/svg" xmlns:xlink="http://www.w3.org/1999/xlink">
    <title>编组 7</title>
    <g id="开放平台" stroke="none" stroke-width="1" fill="none" fill-rule="evenodd">
        <g id="接入指南_对接流程" transform="translate(-686.000000, -351.000000)">
            <g id="编组-7" transform="translate(686.500000, 351.581200)">
                <g id="对接流程icon">
                    <g id="编组-3">
                        <circle id="椭圆形" fill="#E7F0FD" opacity="0.454799107" cx="49" cy="49" r="49"></circle>
                        <g id="apply.77feedcf" transform="translate(21.000000, 17.587302)" fill-rule="nonzero">
                            <path d="M15.9047619,17.4285714 L39.968254,17.4285714 C41.015873,17.3968254 41.8412698,16.5079365 41.7777778,15.4603175 C41.7460317,14.4761905 40.952381,13.6825397 39.968254,13.6507937 L15.9047619,13.6507937 C14.8571429,13.6825397 14.031746,14.5714286 14.0952381,15.6190476 C14.1269841,16.6031746 14.9206349,17.3968254 15.9047619,17.4285714 Z" id="路径" fill="#126BF2"></path>
                            <path d="M15.9047619,31.968254 L39.968254,31.968254 C41.015873,31.9365079 41.8412698,31.047619 41.7777778,30 C41.7460317,29.015873 40.952381,28.2222222 39.968254,28.1904762 L15.9047619,28.1904762 C14.8571429,28.2222222 14.031746,29.1111111 14.0952381,30.1587302 C14.1269841,31.1428571 14.9206349,31.9365079 15.9047619,31.968254 Z" id="路径" fill="#126BF2"></path>
                            <path d="M15.9047619,45.8412698 L22.984127,45.8412698 C24.031746,45.8095238 24.8571429,44.9206349 24.7936508,43.8730159 C24.7619048,42.8888889 23.968254,42.0952381 22.984127,42.0634921 L15.9047619,42.0634921 C14.8571429,42.0952381 14.031746,42.984127 14.0952381,44.031746 C14.1269841,45.015873 14.9206349,45.8095238 15.9047619,45.8412698 Z" id="路径" fill="#126BF2"></path>
                            <path d="M47.5873016,0 L8.44444444,0 C3.77777778,0 0,3.77777778 0,8.41269841 L0,54.4126984 C0,59.047619 3.77777778,62.8253968 8.44444444,62.8253968 L29.968254,62.8253968 C31.015873,62.8253968 31.8730159,61.968254 31.8730159,60.9206349 C31.8730159,60.031746 31.2698413,59.2698413 30.4126984,59.047619 L8.44444444,58.984127 C5.9047619,58.984127 3.84126984,56.9206349 3.84126984,54.3809524 L3.84126984,8.41269841 C3.84126984,5.87301587 5.9047619,3.80952381 8.44444444,3.80952381 L47.5873016,3.80952381 C50.1269841,3.80952381 52.1904762,5.87301587 52.1904762,8.41269841 L52.1904762,36.7301587 C52.1904762,37.7777778 53.047619,38.6349206 54.0952381,38.6349206 C55.1428571,38.6349206 56,37.7777778 56,36.7301587 L56,8.41269841 C56,3.77777778 52.2222222,0 47.5873016,0 Z" id="路径" fill="#126BF2"></path>
                            <g id="编组" transform="translate(29.644304, 33.036948)" fill="#32CDAA">
                                <path d="M20.1334734,14.9630517 C19.6572829,14.9630517 19.1810925,14.7725755 18.8318861,14.3916231 L13.2128385,8.39162314 C12.5144258,7.62971838 12.5461718,6.4551152 13.2445845,5.72495647 C13.9747432,4.99479774 15.1176004,5.02654378 15.8160131,5.75670251 L21.4350607,11.7567025 C22.1334734,12.5186073 22.1017274,13.6932104 21.4033147,14.4233692 C21.0223623,14.7725755 20.5779179,14.9630517 20.1334734,14.9630517 L20.1334734,14.9630517 Z" id="路径"></path>
                                <path d="M0.101727375,21.0582898 C-0.215732943,20.0424168 0.260457534,18.9630517 0.831886105,18.296385 L15.752521,0.867813616 C16.1652194,0.39162314 16.736648,0.0741628227 17.3715686,0.0106707592 C18.0382353,-0.0528213043 18.704902,0.169400918 19.1810925,0.613845362 L25.3398226,6.29638504 C26.3239496,7.21701997 26.4191877,8.80432155 25.4985528,9.8519406 L21.752521,14.264639 C21.0858544,15.0582898 19.9429972,15.1217819 19.1810925,14.4233692 C18.4191877,13.7249565 18.3556956,12.5503533 19.0223623,11.7567025 L22.0064893,8.26463901 L17.689029,4.29638504 L3.72077499,20.6138454 C3.72077499,20.7090835 3.72077499,20.8043216 3.72077499,20.8995596 L3.81601309,25.5027343 L7.68902896,25.0265438 C7.75252103,24.9630517 7.81601309,24.8995596 7.87950515,24.8360676 L15.5302988,16.0741628 C16.1969655,15.3122581 17.3398226,15.248766 18.1017274,15.9471787 C18.8318861,16.6455914 18.8953782,17.8519406 18.2287115,18.6138454 L10.5779179,27.3440041 C10.3874417,27.5662263 10.1017274,27.8836866 9.78426706,28.1376549 C9.05410833,28.7408295 8.41918769,28.8678136 7.94299722,28.8043216 L0.292203565,29.6932104 L0.101727375,21.0582898 Z" id="形状"></path>
                            </g>
                        </g>
                    </g>
                    <g id="编组-4" transform="translate(244.300000, 0.000000)">
                        <circle id="椭圆形备份" fill="#E7F0FD" opacity="0.454799107" cx="49" cy="49" r="49"></circle>
                        <g id="create.e179944e" transform="translate(21.000000, 23.310084)" fill-rule="nonzero">
                            <path d="M6.33846154,46.7644482 C4.76923077,46.7644482 3.50769231,45.5029098 3.50769231,43.933679 L3.50769231,43.933679 L3.50769231,14.5490636 C3.50769231,12.9798328 4.76923077,11.7182944 6.33846154,11.7182944 L49.6923077,11.7182944 C51.2615385,11.7182944 52.5230769,12.9798328 52.5230769,14.5490636 L52.5230769,14.5490636 L52.5230769,21.0721405 C53.7846154,21.8413713 54.9538462,22.7644482 56,23.7798328 L56,10.9182944 C56,6.67214054 52.1230769,7.04137131 52.1230769,7.04137131 C52.1230769,7.04137131 28.9538462,7.07214054 30.1846154,7.04137131 C28.8615385,7.07214054 28.2153846,6.333679 28.2153846,6.333679 C28.2153846,6.333679 27.2923077,4.733679 25.6307692,2.24137131 C23.8769231,-0.404782537 21.8769231,0.0259866941 21.8769231,0.0259866941 L4.8,0.0259866941 C0.0615384615,0.0259866941 0,4.57983285 0,4.57983285 L0,45.7182944 C0,50.7952175 3.81538462,50.1490636 3.81538462,50.1490636 L25.0153846,50.1490636 C24.2461538,49.0721405 23.6,47.9029098 23.0461538,46.6721405 L6.33846154,46.7644482 L6.33846154,46.7644482 Z" id="路径" fill="#126BF2"></path>
                            <path d="M41.8153846,25.5952175 C34.7076923,25.5952175 28.9230769,31.3490636 28.9230769,38.4875252 C28.9230769,45.6259867 34.6769231,51.3798328 41.8153846,51.3798328 C48.9538462,51.3798328 54.7076923,45.6259867 54.7076923,38.4875252 C54.7076923,31.3490636 48.9230769,25.5952175 41.8153846,25.5952175 L41.8153846,25.5952175 Z M48.4,40.2721405 L43.6,40.2721405 L43.6,45.0721405 C43.6,46.0567559 42.8,46.8567559 41.8153846,46.8567559 C40.8307692,46.8567559 40.0307692,46.0567559 40.0307692,45.0721405 L40.0307692,40.2721405 L35.2307692,40.2721405 C34.2461538,40.2721405 33.4461538,39.4721405 33.4461538,38.4875252 C33.4461538,37.5029098 34.2461538,36.7029098 35.2307692,36.7029098 L40.0307692,36.7029098 L40.0307692,31.9029098 C40.0307692,30.9182944 40.8307692,30.1182944 41.8153846,30.1182944 C42.8,30.1182944 43.6,30.9182944 43.6,31.9029098 L43.6,36.7029098 L48.4,36.7029098 C49.3846154,36.7029098 50.1846154,37.5029098 50.1846154,38.4875252 L50.1846154,38.4875252 C50.2153846,39.4721405 49.3846154,40.2721405 48.4,40.2721405 L48.4,40.2721405 Z" id="形状" fill="#32CDAA"></path>
                        </g>
                    </g>
                    <g id="编组-6" transform="translate(489.100000, 0.000000)">
                        <circle id="椭圆形备份-3" fill="#E7F0FD" opacity="0.454799107" cx="49" cy="49" r="49"></circle>
                        <g id="call.34d1c7da" transform="translate(18.600000, 18.600000)" fill-rule="nonzero">
                            <path d="M58.619798,32.580202 C59.8173737,32.580202 60.8,31.5975758 60.8,30.4 C60.8,29.2024242 59.8173737,28.219798 58.619798,28.219798 L2.24161616,28.219798 C1.01333333,28.219798 0,29.2024242 0,30.4 C0,31.5975758 1.01333333,32.580202 2.24161616,32.580202 L58.619798,32.580202 Z M17.0731313,10.8088889 C17.1652525,10.8088889 17.2573737,10.870303 17.3494949,10.870303 L58.619798,10.870303 C59.8173737,10.870303 60.8,9.88767677 60.8,8.69010101 C60.8,7.49252525 59.8173737,6.50989899 58.619798,6.50989899 L17.380202,6.50989899 C17.2880808,6.50989899 17.1959596,6.54060606 17.1038384,6.57131313 C16.1212121,2.70222222 12.6513131,0 8.69010101,0 C3.89979798,0 0,3.89979798 0,8.69010101 C0,13.480404 3.89979798,17.380202 8.69010101,17.380202 C12.6513131,17.3494949 16.1212121,14.6472727 17.0731313,10.8088889 Z M4.32969697,8.69010101 C4.32969697,6.29494949 6.26424242,4.36040404 8.65939394,4.36040404 C11.0545455,4.36040404 12.9890909,6.29494949 12.9890909,8.69010101 C12.9890909,11.0852525 11.0545455,13.019798 8.65939394,13.019798 C6.29494949,13.019798 4.32969697,11.0852525 4.32969697,8.69010101 Z M52.109899,60.8 C56.900202,60.8 60.8,56.900202 60.8,52.109899 C60.8,47.319596 56.900202,43.419798 52.109899,43.419798 C48.1486869,43.419798 44.6787879,46.1220202 43.7268687,49.9911111 C43.6347475,49.9911111 43.5426263,49.929697 43.4505051,49.929697 L2.18020202,49.929697 C0.982626263,49.929697 0,50.9123232 0,52.109899 C0,53.3074747 0.982626263,54.290101 2.18020202,54.290101 L43.4505051,54.290101 C43.5426263,54.290101 43.6347475,54.2593939 43.7268687,54.2286869 C44.6787879,58.0977778 48.1486869,60.8 52.109899,60.8 Z M47.780202,52.109899 C47.780202,49.7147475 49.7147475,47.780202 52.109899,47.780202 C54.5050505,47.780202 56.439596,49.7147475 56.439596,52.109899 C56.439596,54.5050505 54.5050505,56.439596 52.109899,56.439596 C49.7147475,56.439596 47.780202,54.5050505 47.780202,52.109899 Z" id="形状" fill="#126BF2"></path>
                            <circle id="椭圆形" fill="#32CDAA" cx="30.4307071" cy="30.4" r="8.69010101"></circle>
                        </g>
                    </g>
                    <g id="arrow.5c0862c8" transform="translate(103.304817, 38.876000)" fill="#E6E6E6" fill-rule="nonzero">
                        <path d="M95.408,13.124 C95.408,12.18 94.464,11.252 93.344,11.252 C92.224,11.252 91.28,12.196 91.28,13.124 C91.28,14.052 92.224,14.996 93.344,14.996 C94.288,15.012 95.408,14.068 95.408,13.124 Z M58.864,13.124 C58.864,12.18 57.92,11.252 56.8,11.252 C55.68,11.252 54.736,12.196 54.736,13.124 C54.736,14.052 55.68,14.996 56.8,14.996 C57.744,15.012 58.864,14.068 58.864,13.124 Z M22.496,13.124 C22.496,12.18 21.552,11.252 20.432,11.252 C19.312,11.252 18.368,12.196 18.368,13.124 C18.368,14.052 19.312,14.996 20.432,14.996 C21.376,15.012 22.496,14.068 22.496,13.124 Z M86.224,13.124 C86.224,12.18 85.28,11.252 84.16,11.252 C83.04,11.252 82.096,12.196 82.096,13.124 C82.096,14.052 83.04,14.996 84.16,14.996 C85.104,15.012 86.224,14.068 86.224,13.124 Z M49.68,13.124 C49.68,12.18 48.736,11.252 47.616,11.252 C46.496,11.252 45.552,12.196 45.552,13.124 C45.552,14.052 46.496,14.996 47.616,14.996 C48.56,15.012 49.68,14.068 49.68,13.124 Z M13.312,13.124 C13.312,12.18 12.368,11.252 11.248,11.252 C10.128,11.252 9.184,12.196 9.184,13.124 C9.184,14.052 10.128,14.996 11.248,14.996 C12.192,15.012 13.312,14.068 13.312,13.124 Z M77.04,13.124 C77.04,12.18 76.096,11.252 74.976,11.252 C73.856,11.252 72.912,12.196 72.912,13.124 C72.912,14.052 73.856,14.996 74.976,14.996 C75.92,15.012 77.04,14.068 77.04,13.124 Z M40.496,13.124 C40.496,12.18 39.552,11.252 38.432,11.252 C37.312,11.252 36.368,12.196 36.368,13.124 C36.368,14.052 37.312,14.996 38.432,14.996 C39.376,15.012 40.496,14.068 40.496,13.124 Z M4.128,13.124 C4.128,12.18 3.184,11.252 2.064,11.252 C0.944,11.252 0,12.196 0,13.124 C0,14.052 0.944,14.996 2.064,14.996 C3.008,15.012 4.128,14.068 4.128,13.124 Z M104.4,13.124 C104.4,12.18 103.648,11.252 102.528,11.252 C101.408,11.252 100.464,12.196 100.464,13.124 C100.464,14.052 101.408,14.996 102.528,14.996 C103.648,14.996 104.4,14.068 104.4,13.124 Z M67.856,13.124 C67.856,12.18 67.104,11.252 65.984,11.252 C64.864,11.252 63.92,12.196 63.92,13.124 C63.92,14.052 64.864,14.996 65.984,14.996 C67.104,14.996 67.856,14.068 67.856,13.124 Z M31.488,13.124 C31.488,12.18 30.736,11.252 29.616,11.252 C28.496,11.252 27.552,12.196 27.552,13.124 C27.552,14.052 28.496,14.996 29.616,14.996 C30.736,14.996 31.488,14.068 31.488,13.124 Z M136.096,13.316 L136.096,12.564 C136.096,12.372 135.904,12.372 135.904,12.196 L135.712,12.004 L135.712,11.812 L124.08,0.564 C123.328,-0.188 122.208,-0.188 121.456,0.564 C120.704,1.316 120.704,2.436 121.456,3.188 L129.712,11.252 L111.152,11.252 C110.208,11.252 109.28,12.196 109.28,13.124 C109.28,14.052 110.032,14.996 111.152,14.996 L129.712,14.996 L121.648,23.06 C120.896,23.812 120.896,24.932 121.648,25.684 C122.4,26.436 123.52,26.436 124.272,25.684 L135.712,14.628 C135.904,14.436 136.08,14.26 136.272,13.876 C136.288,13.7 136.288,13.508 136.096,13.316 L136.096,13.316 Z" id="形状"></path>
                    </g>
                    <g id="arrow.5c0862c8备份" transform="translate(346.321635, 38.876000)" fill="#E6E6E6" fill-rule="nonzero">
                        <path d="M95.408,13.124 C95.408,12.18 94.464,11.252 93.344,11.252 C92.224,11.252 91.28,12.196 91.28,13.124 C91.28,14.052 92.224,14.996 93.344,14.996 C94.288,15.012 95.408,14.068 95.408,13.124 Z M58.864,13.124 C58.864,12.18 57.92,11.252 56.8,11.252 C55.68,11.252 54.736,12.196 54.736,13.124 C54.736,14.052 55.68,14.996 56.8,14.996 C57.744,15.012 58.864,14.068 58.864,13.124 Z M22.496,13.124 C22.496,12.18 21.552,11.252 20.432,11.252 C19.312,11.252 18.368,12.196 18.368,13.124 C18.368,14.052 19.312,14.996 20.432,14.996 C21.376,15.012 22.496,14.068 22.496,13.124 Z M86.224,13.124 C86.224,12.18 85.28,11.252 84.16,11.252 C83.04,11.252 82.096,12.196 82.096,13.124 C82.096,14.052 83.04,14.996 84.16,14.996 C85.104,15.012 86.224,14.068 86.224,13.124 Z M49.68,13.124 C49.68,12.18 48.736,11.252 47.616,11.252 C46.496,11.252 45.552,12.196 45.552,13.124 C45.552,14.052 46.496,14.996 47.616,14.996 C48.56,15.012 49.68,14.068 49.68,13.124 Z M13.312,13.124 C13.312,12.18 12.368,11.252 11.248,11.252 C10.128,11.252 9.184,12.196 9.184,13.124 C9.184,14.052 10.128,14.996 11.248,14.996 C12.192,15.012 13.312,14.068 13.312,13.124 Z M77.04,13.124 C77.04,12.18 76.096,11.252 74.976,11.252 C73.856,11.252 72.912,12.196 72.912,13.124 C72.912,14.052 73.856,14.996 74.976,14.996 C75.92,15.012 77.04,14.068 77.04,13.124 Z M40.496,13.124 C40.496,12.18 39.552,11.252 38.432,11.252 C37.312,11.252 36.368,12.196 36.368,13.124 C36.368,14.052 37.312,14.996 38.432,14.996 C39.376,15.012 40.496,14.068 40.496,13.124 Z M4.128,13.124 C4.128,12.18 3.184,11.252 2.064,11.252 C0.944,11.252 0,12.196 0,13.124 C0,14.052 0.944,14.996 2.064,14.996 C3.008,15.012 4.128,14.068 4.128,13.124 Z M104.4,13.124 C104.4,12.18 103.648,11.252 102.528,11.252 C101.408,11.252 100.464,12.196 100.464,13.124 C100.464,14.052 101.408,14.996 102.528,14.996 C103.648,14.996 104.4,14.068 104.4,13.124 Z M67.856,13.124 C67.856,12.18 67.104,11.252 65.984,11.252 C64.864,11.252 63.92,12.196 63.92,13.124 C63.92,14.052 64.864,14.996 65.984,14.996 C67.104,14.996 67.856,14.068 67.856,13.124 Z M31.488,13.124 C31.488,12.18 30.736,11.252 29.616,11.252 C28.496,11.252 27.552,12.196 27.552,13.124 C27.552,14.052 28.496,14.996 29.616,14.996 C30.736,14.996 31.488,14.068 31.488,13.124 Z M136.096,13.316 L136.096,12.564 C136.096,12.372 135.904,12.372 135.904,12.196 L135.712,12.004 L135.712,11.812 L124.08,0.564 C123.328,-0.188 122.208,-0.188 121.456,0.564 C120.704,1.316 120.704,2.436 121.456,3.188 L129.712,11.252 L111.152,11.252 C110.208,11.252 109.28,12.196 109.28,13.124 C109.28,14.052 110.032,14.996 111.152,14.996 L129.712,14.996 L121.648,23.06 C120.896,23.812 120.896,24.932 121.648,25.684 C122.4,26.436 123.52,26.436 124.272,25.684 L135.712,14.628 C135.904,14.436 136.08,14.26 136.272,13.876 C136.288,13.7 136.288,13.508 136.096,13.316 L136.096,13.316 Z" id="形状"></path>
                    </g>
                </g>
                <path d="M254.124,116.536 L254.124,112.344 L258.06,112.344 L258.06,113.32 L259.196,113.32 L259.196,104.376 L254.124,104.376 L254.124,101.976 L252.94,101.976 L252.94,104.376 L247.804,104.376 L247.804,113.432 L248.94,113.432 L248.94,112.344 L252.94,112.344 L252.94,116.536 L254.124,116.536 Z M252.94,107.816 L248.94,107.816 L248.94,105.448 L252.94,105.448 L252.94,107.816 Z M258.06,107.816 L254.124,107.816 L254.124,105.448 L258.06,105.448 L258.06,107.816 Z M252.94,111.256 L248.94,111.256 L248.94,108.856 L252.94,108.856 L252.94,111.256 Z M258.06,111.256 L254.124,111.256 L254.124,108.856 L258.06,108.856 L258.06,111.256 Z M276.796,107.96 L276.796,107 L272.428,107 L272.428,105.912 L275.82,105.912 L275.82,104.984 L272.428,104.984 L272.428,103.912 L276.396,103.912 L276.396,102.968 L272.428,102.968 L272.428,101.928 L271.324,101.928 L271.324,102.968 L267.452,102.968 L267.452,103.912 L271.324,103.912 L271.324,104.984 L268.092,104.984 L268.092,105.912 L271.324,105.912 L271.324,107 L267.004,107 L267.004,107.96 L276.796,107.96 Z M266.028,105.336 L266.812,104.536 C266.076,103.72 265.18,102.904 264.108,102.104 L263.292,102.888 C264.444,103.752 265.356,104.568 266.028,105.336 Z M264.54,116.04 C265.532,115.32 266.492,114.488 267.388,113.56 L267.084,112.344 C266.54,112.904 266.044,113.4 265.564,113.848 L265.564,106.824 L262.172,106.824 L262.172,107.928 L264.46,107.928 L264.46,114.28 C264.46,114.552 264.332,114.792 264.092,115.016 L264.54,116.04 Z M269.324,116.6 L269.324,114.056 L274.492,114.056 L274.492,114.968 C274.492,115.336 274.284,115.528 273.9,115.528 L272.62,115.48 L272.892,116.504 L274.236,116.504 C275.132,116.504 275.596,116.072 275.596,115.208 L275.596,108.968 L268.22,108.968 L268.22,116.6 L269.324,116.6 Z M274.492,111.096 L269.324,111.096 L269.324,109.912 L274.492,109.912 L274.492,111.096 Z M274.492,113.16 L269.324,113.16 L269.324,111.992 L274.492,111.992 L274.492,113.16 Z M290.94,116.472 C291.772,116.472 292.204,116.008 292.204,115.112 L292.204,102.024 L291.116,102.024 L291.116,114.84 C291.116,115.256 290.924,115.48 290.556,115.48 C290.044,115.48 289.5,115.448 288.94,115.4 L289.18,116.472 L290.94,116.472 Z M280.732,105.16 L281.484,104.392 C280.876,103.688 280.124,102.968 279.228,102.264 L278.444,103.016 C279.42,103.768 280.188,104.488 280.732,105.16 Z M283.148,112.568 L283.148,103.704 L286.46,103.704 L286.46,112.472 L287.484,112.472 L287.484,102.712 L282.124,102.712 L282.124,112.568 L283.148,112.568 Z M289.756,113.32 L289.756,103.336 L288.748,103.336 L288.748,113.32 L289.756,113.32 Z M281.852,116.616 C283.036,116.04 283.9,115.24 284.428,114.248 C284.972,113.16 285.26,111.704 285.292,109.88 L285.292,104.808 L284.332,104.808 L284.332,109.88 C284.3,111.368 284.06,112.568 283.644,113.496 C283.196,114.392 282.396,115.112 281.244,115.656 L281.852,116.616 Z M280.412,109.24 L281.164,108.488 C280.572,107.72 279.836,106.968 278.972,106.2 L278.188,106.936 C279.132,107.752 279.868,108.52 280.412,109.24 Z M279.324,116.408 C280.06,114.68 280.748,112.84 281.356,110.888 L280.38,110.504 C279.772,112.36 279.068,114.184 278.268,115.96 L279.324,116.408 Z M287.452,116.6 L288.22,115.832 C287.564,114.968 286.748,114.088 285.772,113.224 L285.068,113.896 C286.092,114.856 286.876,115.752 287.452,116.6 Z M307.452,104.44 L308.252,103.88 C307.868,103.304 307.34,102.632 306.652,101.864 L305.836,102.36 C306.508,103.128 307.052,103.816 307.452,104.44 Z M307.084,116.36 C307.82,116.36 308.444,115.208 308.972,112.904 L308.06,112.168 C307.74,114.072 307.404,115.048 307.084,115.112 C306.604,115.048 306.188,114.12 305.836,112.296 C305.58,110.792 305.404,108.68 305.324,105.928 L308.492,105.928 L308.492,104.808 L305.308,104.808 C305.276,103.896 305.276,102.92 305.276,101.88 L304.156,101.88 C304.156,102.904 304.156,103.88 304.188,104.808 L299.148,104.808 L299.148,105.928 L304.22,105.928 C304.284,108.024 304.396,109.784 304.572,111.192 C304.796,112.856 305.148,114.152 305.628,115.112 C306.044,115.944 306.54,116.36 307.084,116.36 Z M297.884,105.352 L298.668,104.552 C297.964,103.72 297.116,102.904 296.092,102.088 L295.292,102.872 C296.38,103.736 297.244,104.568 297.884,105.352 Z M296.508,116.024 C297.5,115.288 298.428,114.44 299.308,113.48 L299.004,112.264 C298.492,112.824 298.012,113.336 297.532,113.8 L297.532,106.824 L294.172,106.824 L294.172,107.928 L296.412,107.928 L296.412,114.344 C296.412,114.584 296.284,114.808 296.06,115 L296.508,116.024 Z M299.74,115.4 C301.34,115.128 302.844,114.792 304.236,114.392 L304.236,113.32 C303.564,113.512 302.86,113.688 302.156,113.848 L302.156,109.512 L303.66,109.512 L303.66,108.44 L299.516,108.44 L299.516,109.512 L301.02,109.512 L301.02,114.072 C300.508,114.168 299.98,114.248 299.452,114.312 L299.74,115.4 Z M318.268,116.568 C319.548,116.168 320.668,115.656 321.66,115.032 L321.452,114.008 C320.716,114.472 319.98,114.84 319.276,115.112 L319.276,109.672 L320.684,109.672 C321.452,112.648 322.604,114.92 324.108,116.456 L324.892,115.56 C323.5,114.184 322.428,112.232 321.692,109.672 L324.588,109.672 L324.588,108.552 L319.276,108.552 L319.276,101.944 L318.156,101.944 L318.156,108.552 L317.004,108.552 L317.004,109.672 L318.156,109.672 L318.156,115.048 C318.156,115.272 318.028,115.432 317.788,115.544 L318.268,116.568 Z M311.852,112.616 L311.852,103.64 L315.308,103.64 L315.308,112.616 L316.332,112.616 L316.332,102.568 L310.796,102.568 L310.796,112.616 L311.852,112.616 Z M320.396,107.384 C321.9,106.52 323.228,105.176 324.348,103.384 L323.468,102.664 C322.444,104.376 321.212,105.656 319.772,106.488 L320.396,107.384 Z M310.828,116.648 C311.948,116.088 312.748,115.304 313.244,114.312 C313.756,113.24 314.012,111.8 314.044,110.008 L314.044,104.808 L313.052,104.808 L313.052,110.008 C313.02,111.464 312.812,112.648 312.428,113.576 C312.012,114.456 311.26,115.16 310.204,115.688 L310.828,116.648 Z M315.996,116.52 L316.812,115.704 C316.22,114.84 315.484,113.96 314.588,113.064 L313.852,113.784 C314.764,114.744 315.484,115.656 315.996,116.52 Z M338.188,106.824 L338.188,102.504 L328.812,102.504 L328.812,106.824 L338.188,106.824 Z M337.004,105.784 L329.996,105.784 L329.996,103.544 L337.004,103.544 L337.004,105.784 Z M335.468,116.488 C336.556,116.488 337.292,116.248 337.676,115.768 C338.06,115.272 338.316,113.736 338.412,111.176 L330.588,111.176 L331.132,109.304 L340.684,109.304 L340.684,108.2 L326.3,108.2 L326.3,109.304 L329.964,109.304 L329.212,112.216 L337.244,112.216 C337.148,113.656 337.004,114.552 336.812,114.904 C336.604,115.256 336.076,115.432 335.212,115.432 C334.556,115.432 333.804,115.4 332.956,115.336 L333.34,116.392 C333.964,116.456 334.668,116.488 335.468,116.488 Z" id="申请测试账号" fill="#000000" fill-rule="nonzero"></path>
                <path d="M15.124,116.536 L15.124,112.344 L19.06,112.344 L19.06,113.32 L20.196,113.32 L20.196,104.376 L15.124,104.376 L15.124,101.976 L13.94,101.976 L13.94,104.376 L8.804,104.376 L8.804,113.432 L9.94,113.432 L9.94,112.344 L13.94,112.344 L13.94,116.536 L15.124,116.536 Z M13.94,107.816 L9.94,107.816 L9.94,105.448 L13.94,105.448 L13.94,107.816 Z M19.06,107.816 L15.124,107.816 L15.124,105.448 L19.06,105.448 L19.06,107.816 Z M13.94,111.256 L9.94,111.256 L9.94,108.856 L13.94,108.856 L13.94,111.256 Z M19.06,111.256 L15.124,111.256 L15.124,108.856 L19.06,108.856 L19.06,111.256 Z M37.796,107.96 L37.796,107 L33.428,107 L33.428,105.912 L36.82,105.912 L36.82,104.984 L33.428,104.984 L33.428,103.912 L37.396,103.912 L37.396,102.968 L33.428,102.968 L33.428,101.928 L32.324,101.928 L32.324,102.968 L28.452,102.968 L28.452,103.912 L32.324,103.912 L32.324,104.984 L29.092,104.984 L29.092,105.912 L32.324,105.912 L32.324,107 L28.004,107 L28.004,107.96 L37.796,107.96 Z M27.028,105.336 L27.812,104.536 C27.076,103.72 26.18,102.904 25.108,102.104 L24.292,102.888 C25.444,103.752 26.356,104.568 27.028,105.336 Z M25.54,116.04 C26.532,115.32 27.492,114.488 28.388,113.56 L28.084,112.344 C27.54,112.904 27.044,113.4 26.564,113.848 L26.564,106.824 L23.172,106.824 L23.172,107.928 L25.46,107.928 L25.46,114.28 C25.46,114.552 25.332,114.792 25.092,115.016 L25.54,116.04 Z M30.324,116.6 L30.324,114.056 L35.492,114.056 L35.492,114.968 C35.492,115.336 35.284,115.528 34.9,115.528 L33.62,115.48 L33.892,116.504 L35.236,116.504 C36.132,116.504 36.596,116.072 36.596,115.208 L36.596,108.968 L29.22,108.968 L29.22,116.6 L30.324,116.6 Z M35.492,111.096 L30.324,111.096 L30.324,109.912 L35.492,109.912 L35.492,111.096 Z M35.492,113.16 L30.324,113.16 L30.324,111.992 L35.492,111.992 L35.492,113.16 Z M41.924,115.224 C42.692,115.224 43.38,115.048 43.988,114.712 C44.5,114.424 44.932,114.056 45.252,113.608 L45.252,115 L46.452,115 L46.452,109.688 C46.452,108.728 46.196,107.976 45.716,107.432 C45.14,106.808 44.276,106.504 43.092,106.504 C42.1,106.504 41.316,106.696 40.708,107.08 C40.036,107.496 39.604,108.152 39.428,109.016 L40.692,109.112 C40.82,108.584 41.092,108.184 41.524,107.928 C41.908,107.672 42.404,107.56 43.012,107.56 C44.452,107.56 45.172,108.248 45.172,109.64 L45.172,110.072 L43.188,110.104 C41.94,110.12 40.98,110.36 40.308,110.808 C39.54,111.288 39.172,111.992 39.172,112.936 C39.172,113.608 39.428,114.168 39.94,114.6 C40.436,115.016 41.092,115.224 41.924,115.224 Z M42.196,114.216 C41.684,114.216 41.268,114.088 40.948,113.848 C40.628,113.592 40.484,113.288 40.484,112.904 C40.484,111.704 41.412,111.096 43.268,111.064 L45.172,111.032 L45.172,111.736 C45.172,112.376 44.868,112.952 44.276,113.448 C43.668,113.96 42.98,114.216 42.196,114.216 Z M49.716,118.168 L49.716,113.496 C50.356,114.648 51.268,115.224 52.452,115.224 C53.636,115.224 54.548,114.776 55.22,113.912 C55.828,113.112 56.148,112.104 56.148,110.888 C56.148,109.64 55.828,108.632 55.204,107.832 C54.516,106.936 53.572,106.504 52.388,106.504 C51.14,106.504 50.228,107.032 49.636,108.088 L49.636,106.728 L48.436,106.728 L48.436,118.168 L49.716,118.168 Z M52.18,114.168 C51.412,114.168 50.82,113.864 50.372,113.288 C49.892,112.696 49.668,111.928 49.668,110.968 L49.668,110.808 C49.668,109.88 49.876,109.112 50.292,108.536 C50.74,107.88 51.396,107.56 52.228,107.56 C53.108,107.56 53.78,107.88 54.244,108.552 C54.628,109.128 54.836,109.912 54.836,110.888 C54.836,111.88 54.628,112.664 54.212,113.24 C53.748,113.848 53.076,114.168 52.18,114.168 Z M59.092,118.168 L59.092,113.496 C59.732,114.648 60.644,115.224 61.828,115.224 C63.012,115.224 63.924,114.776 64.596,113.912 C65.204,113.112 65.524,112.104 65.524,110.888 C65.524,109.64 65.204,108.632 64.58,107.832 C63.892,106.936 62.948,106.504 61.764,106.504 C60.516,106.504 59.604,107.032 59.012,108.088 L59.012,106.728 L57.812,106.728 L57.812,118.168 L59.092,118.168 Z M61.556,114.168 C60.788,114.168 60.196,113.864 59.748,113.288 C59.268,112.696 59.044,111.928 59.044,110.968 L59.044,110.808 C59.044,109.88 59.252,109.112 59.668,108.536 C60.116,107.88 60.772,107.56 61.604,107.56 C62.484,107.56 63.156,107.88 63.62,108.552 C64.004,109.128 64.212,109.912 64.212,110.888 C64.212,111.88 64.004,112.664 63.588,113.24 C63.124,113.848 62.452,114.168 61.556,114.168 Z M68.468,115 L68.468,112.072 L69.78,110.888 L73.012,115 L74.66,115 L70.66,110.056 L74.308,106.728 L72.612,106.728 L68.468,110.568 L68.468,103.352 L67.188,103.352 L67.188,115 L68.468,115 Z M79.108,115.224 C80.18,115.224 81.06,114.904 81.748,114.296 C82.308,113.784 82.676,113.144 82.868,112.344 L81.588,112.344 C81.38,112.92 81.108,113.352 80.756,113.64 C80.34,113.976 79.78,114.152 79.108,114.152 C78.324,114.152 77.7,113.896 77.252,113.384 C76.804,112.872 76.564,112.152 76.5,111.224 L83.028,111.224 C82.996,109.784 82.676,108.648 82.068,107.848 C81.396,106.952 80.388,106.504 79.06,106.504 C77.86,106.504 76.916,106.936 76.212,107.8 C75.508,108.616 75.172,109.64 75.172,110.856 C75.172,112.2 75.524,113.256 76.26,114.056 C76.964,114.824 77.924,115.224 79.108,115.224 Z M81.7,110.232 L76.532,110.232 C76.612,109.416 76.868,108.776 77.316,108.296 C77.764,107.816 78.356,107.576 79.092,107.576 C80.66,107.576 81.54,108.456 81.7,110.232 Z M86.868,118.168 L91.396,106.728 L89.988,106.728 L87.54,113.256 L85.012,106.728 L83.62,106.728 L86.9,114.808 L85.476,118.168 L86.868,118.168 Z" id="申请appkey" fill="#000000" fill-rule="nonzero"></path>
                <path d="M507.34,117.432 C508.748,116.696 509.756,115.656 510.364,114.312 C510.844,113.224 511.148,111.864 511.292,110.216 L515.916,110.216 L515.916,117.304 L517.084,117.304 L517.084,110.216 L520.588,110.216 L520.588,109.112 L517.084,109.112 L517.084,104.872 L519.756,104.872 L519.756,103.752 L507.292,103.752 L507.292,104.872 L510.204,104.872 L510.204,108.552 C510.204,108.712 510.188,108.904 510.188,109.112 L506.428,109.112 L506.428,110.216 L510.124,110.216 C509.996,111.496 509.772,112.584 509.436,113.512 C508.924,114.728 508.012,115.704 506.716,116.44 L507.34,117.432 Z M515.916,109.112 L511.372,109.112 C511.372,108.936 511.388,108.744 511.388,108.552 L511.388,104.872 L515.916,104.872 L515.916,109.112 Z M526.028,117.512 C527.964,116.76 529.596,115.928 530.908,115 C532.252,115.88 533.948,116.696 535.996,117.448 L536.588,116.376 C534.732,115.736 533.148,115.032 531.852,114.264 C533.164,113.144 534.028,111.896 534.46,110.52 L534.46,109.528 L527.916,109.528 C528.14,108.952 528.332,108.344 528.524,107.704 L536.316,107.704 L536.316,106.6 L528.828,106.6 C529.116,105.416 529.372,104.168 529.58,102.824 L528.412,102.68 C528.22,104.056 527.964,105.352 527.644,106.6 L524.844,106.6 L525.756,103.448 L524.62,103.256 L523.356,107.704 L527.324,107.704 C526.204,111.272 524.492,114.072 522.156,116.12 L522.748,117.176 C524.572,115.688 526.076,113.688 527.244,111.16 C527.772,112.28 528.652,113.32 529.9,114.28 C528.7,115.064 527.212,115.784 525.42,116.44 L526.028,117.512 Z M534.316,106.264 L535.132,105.448 C534.364,104.568 533.42,103.688 532.268,102.808 L531.5,103.56 C532.7,104.52 533.644,105.416 534.316,106.264 Z M530.844,113.608 C529.564,112.68 528.652,111.672 528.108,110.584 L533.292,110.584 C532.844,111.672 532.028,112.68 530.844,113.608 Z M549.276,117.416 C550.364,117.416 550.924,116.872 550.924,115.8 L550.924,107 L552.7,107 L552.7,105.896 L550.924,105.896 L550.924,102.76 L549.772,102.76 L549.772,105.896 L545.132,105.896 L545.132,107 L549.772,107 L549.772,115.512 C549.772,116.072 549.468,116.36 548.876,116.36 C548.14,116.36 547.356,116.328 546.524,116.28 L546.764,117.416 L549.276,117.416 Z M538.844,116.424 C540.316,115.208 541.5,113.832 542.38,112.296 C542.956,113.112 543.484,113.912 543.964,114.712 L544.796,113.88 C544.236,112.984 543.612,112.072 542.94,111.176 C543.772,109.4 544.22,107.416 544.3,105.24 L544.3,104.392 L538.876,104.392 L538.876,105.512 L543.26,105.512 C543.148,107.208 542.796,108.776 542.204,110.216 C541.34,109.128 540.412,108.024 539.404,106.936 L538.636,107.656 C539.756,108.904 540.78,110.136 541.676,111.336 C540.844,112.904 539.676,114.264 538.172,115.416 L538.844,116.424 Z M547.564,113.032 L548.476,112.392 C547.9,111.368 547.068,110.2 545.996,108.888 L545.116,109.528 C546.108,110.76 546.924,111.928 547.564,113.032 Z M568.188,105.272 L568.188,104.216 L564.604,104.216 C564.428,103.656 564.252,103.144 564.076,102.696 L562.876,102.888 C563.068,103.288 563.26,103.736 563.436,104.216 L559.916,104.216 L559.916,105.272 L568.188,105.272 Z M556.092,117.32 C557.036,117.32 557.516,116.856 557.516,115.928 L557.516,111.192 C557.964,110.984 558.412,110.76 558.86,110.52 L558.86,109.352 C558.412,109.592 557.964,109.816 557.516,110.04 L557.516,106.968 L558.844,106.968 L558.844,105.864 L557.516,105.864 L557.516,102.84 L556.332,102.84 L556.332,105.864 L554.38,105.864 L554.38,106.968 L556.332,106.968 L556.332,110.536 C555.596,110.824 554.844,111.064 554.092,111.256 L554.38,112.408 C555.036,112.2 555.692,111.96 556.332,111.704 L556.332,115.64 C556.332,116.056 556.108,116.264 555.692,116.264 C555.308,116.264 554.892,116.232 554.46,116.2 L554.7,117.32 L556.092,117.32 Z M568.476,108.968 L568.476,107.864 L565.884,107.864 C566.252,107.224 566.588,106.504 566.892,105.704 L565.804,105.32 C565.484,106.216 565.116,107.064 564.668,107.864 L563.1,107.864 C562.748,107 562.38,106.216 561.964,105.496 L561.02,105.944 C561.356,106.52 561.676,107.16 561.996,107.864 L559.548,107.864 L559.548,108.968 L568.476,108.968 Z M559.628,117.528 C561.932,117.08 563.612,116.456 564.668,115.688 C565.948,116.296 567.052,116.888 568.012,117.48 L568.636,116.552 C567.628,115.976 566.572,115.432 565.484,114.92 C566.236,114.104 566.732,113.096 566.972,111.912 L568.732,111.912 L568.732,110.792 L563.244,110.792 C563.436,110.392 563.612,109.976 563.772,109.544 L562.668,109.416 C562.492,109.864 562.3,110.312 562.076,110.792 L559.34,110.792 L559.34,111.912 L561.484,111.912 C561.148,112.52 560.764,113.144 560.332,113.8 C561.452,114.248 562.492,114.68 563.468,115.128 C562.476,115.704 561.036,116.152 559.18,116.488 L559.628,117.528 Z M564.428,114.44 C563.564,114.056 562.668,113.688 561.74,113.336 C562.06,112.888 562.364,112.408 562.652,111.912 L565.884,111.912 C565.628,112.936 565.148,113.768 564.428,114.44 Z" id="开发对接" fill="#000000" fill-rule="nonzero"></path>
            </g>
        </g>
    </g>
</svg>