<?xml version="1.0" encoding="UTF-8"?>
<svg width="99px" height="99px" viewBox="0 0 99 99" version="1.1" xmlns="http://www.w3.org/2000/svg" xmlns:xlink="http://www.w3.org/1999/xlink">
    <title>编组 5</title>
    <g id="开放平台" stroke="none" stroke-width="1" fill="none" fill-rule="evenodd">
        <g id="接入指南_对接流程" transform="translate(-1060.000000, -351.000000)">
            <g id="对接流程icon" transform="translate(686.500000, 351.581200)">
                <g id="编组-5" transform="translate(373.600000, 0.000000)">
                    <circle id="椭圆形备份-2" fill="#E7F0FD" opacity="0.454799107" cx="49" cy="49" r="49"></circle>
                    <g id="check.eccfd0e4" transform="translate(21.000000, 17.587302)" fill-rule="nonzero">
                        <path d="M15.9047619,17.4285714 L39.968254,17.4285714 C41.015873,17.3968254 41.8412698,16.5079365 41.7777778,15.4603175 C41.7460317,14.4761905 40.952381,13.6825397 39.968254,13.6507937 L15.9047619,13.6507937 C14.8571429,13.6825397 14.031746,14.5714286 14.0952381,15.6190476 C14.1269841,16.6031746 14.9206349,17.3968254 15.9047619,17.4285714 Z" id="路径" fill="#126BF2"></path>
                        <path d="M15.9047619,31.968254 L33.015873,31.968254 L36.8253968,31.015873 C37.8730159,30.984127 41.8412698,31.047619 41.7777778,30 C41.7460317,29.015873 40.952381,28.2222222 39.968254,28.1904762 L15.9047619,28.1904762 C14.8571429,28.2222222 14.031746,29.1111111 14.0952381,30.1587302 C14.1269841,31.1428571 14.9206349,31.9365079 15.9047619,31.968254 Z" id="路径" fill="#126BF2"></path>
                        <path d="M15.9047619,45.8730159 L22.984127,45.8730159 C24.031746,45.8412698 24.8571429,44.952381 24.7936508,43.9047619 C24.7619048,42.9206349 23.968254,42.1269841 22.984127,42.0952381 L15.9047619,42.0952381 C14.8571429,42.1269841 14.031746,43.015873 14.0952381,44.0634921 C14.1269841,45.015873 14.9206349,45.8412698 15.9047619,45.8730159 Z" id="路径" fill="#126BF2"></path>
                        <path d="M47.5873016,0 L8.44444444,0 C3.77777778,0 0,3.77777778 0,8.41269841 L0,54.4126984 C0,59.047619 3.77777778,62.8253968 8.44444444,62.8253968 L29.968254,62.8253968 C31.015873,62.8253968 31.8730159,61.968254 31.8730159,60.9206349 C31.8730159,60.031746 31.2698413,59.2698413 30.4126984,59.047619 L8.44444444,58.984127 C5.9047619,58.984127 3.84126984,56.9206349 3.84126984,54.3809524 L3.84126984,8.41269841 C3.84126984,5.87301587 5.9047619,3.80952381 8.44444444,3.80952381 L47.5873016,3.80952381 C50.1269841,3.80952381 52.1904762,5.87301587 52.1904762,8.41269841 L52.1904762,36.7301587 C52.1904762,37.7777778 53.047619,38.6349206 54.0952381,38.6349206 C55.1428571,38.6349206 56,37.7777778 56,36.7301587 L56,8.41269841 C56,3.77777778 52.2222222,0 47.5873016,0 Z" id="路径" fill="#126BF2"></path>
                        <path d="M42.0634921,39.4920635 C41.047619,39.4920635 40.2539683,40.3174603 40.2539683,41.3015873 C40.2539683,44.8888889 37.3333333,47.8095238 33.7460317,47.8095238 C32.7301587,47.8412698 31.9365079,48.6666667 31.968254,49.6825397 C32,50.6666667 32.7619048,51.4285714 33.7460317,51.4603175 C36.4444444,51.4603175 39.015873,50.4126984 40.9206349,48.4761905 C42.8253968,46.5714286 43.9047619,44 43.9047619,41.3015873 C43.8730159,40.3174603 43.047619,39.4920635 42.0634921,39.4920635 L42.0634921,39.4920635 Z" id="路径" fill="#126BF2"></path>
                        <path d="M52.2857143,61.015873 C51.7777778,61.015873 51.3015873,60.8253968 50.984127,60.4761905 L44.6984127,54.3174603 L44.4444444,54.5079365 C42.0634921,56 39.3650794,56.7936508 36.5714286,56.7936508 C34.6031746,56.7936508 32.6984127,56.4126984 30.9206349,55.6825397 C29.1746032,54.952381 27.6507937,53.9365079 26.2857143,52.6349206 C24.952381,51.3333333 23.9047619,49.8095238 23.1746032,48.1269841 C22.4126984,46.3809524 22.031746,44.5079365 22.031746,42.6031746 C22.031746,38.8253968 23.5555556,35.2698413 26.3174603,32.6031746 C27.6507937,31.3015873 29.2063492,30.2539683 30.952381,29.5555556 C32.7619048,28.7936508 34.6666667,28.4126984 36.6349206,28.4126984 C38.6031746,28.4126984 40.5079365,28.7936508 42.2857143,29.5238095 C44.031746,30.2539683 45.5555556,31.2698413 46.9206349,32.5714286 C48.2539683,33.8730159 49.3015873,35.3968254 50.031746,37.0793651 C50.7936508,38.8253968 51.1746032,40.6984127 51.1746032,42.6031746 C51.1746032,45.9365079 50,49.1111111 47.8095238,51.7142857 L47.5555556,52 L53.6825397,57.968254 L53.6825397,57.968254 C54.031746,58.2857143 54.2539683,58.7619048 54.2539683,59.2380952 C54.2539683,59.7142857 54.031746,60.1904762 53.6825397,60.5079365 L53.6825397,60.5079365 C53.2698413,60.8253968 52.7936508,61.015873 52.2857143,61.015873 L52.2857143,61.015873 Z M36.5396825,31.6825397 C30.3809524,31.6825397 25.3968254,36.5396825 25.3968254,42.5396825 C25.3968254,48.5714286 30.4126984,53.4603175 36.5396825,53.4603175 C42.6666667,53.4603175 47.6825397,48.5714286 47.6825397,42.6031746 C47.6825397,36.6031746 42.6666667,31.6825397 36.5396825,31.6825397 Z" id="形状" fill="#32CDAA"></path>
                    </g>
                </g>
            </g>
        </g>
    </g>
</svg>