<?xml version="1.0" encoding="UTF-8"?>
<svg width="99px" height="99px" viewBox="0 0 99 99" version="1.1" xmlns="http://www.w3.org/2000/svg" xmlns:xlink="http://www.w3.org/1999/xlink">
    <title>编组 3</title>
    <g id="开放平台" stroke="none" stroke-width="1" fill="none" fill-rule="evenodd">
        <g id="接入指南_对接流程" transform="translate(-686.000000, -351.000000)">
            <g id="编组-3" transform="translate(686.500000, 351.581200)">
                <circle id="椭圆形" fill="#E7F0FD" opacity="0.454799107" cx="49" cy="49" r="49"></circle>
                <g id="apply.77feedcf" transform="translate(21.000000, 17.587302)" fill-rule="nonzero">
                    <path d="M15.9047619,17.4285714 L39.968254,17.4285714 C41.015873,17.3968254 41.8412698,16.5079365 41.7777778,15.4603175 C41.7460317,14.4761905 40.952381,13.6825397 39.968254,13.6507937 L15.9047619,13.6507937 C14.8571429,13.6825397 14.031746,14.5714286 14.0952381,15.6190476 C14.1269841,16.6031746 14.9206349,17.3968254 15.9047619,17.4285714 Z" id="路径" fill="#126BF2"></path>
                    <path d="M15.9047619,31.968254 L39.968254,31.968254 C41.015873,31.9365079 41.8412698,31.047619 41.7777778,30 C41.7460317,29.015873 40.952381,28.2222222 39.968254,28.1904762 L15.9047619,28.1904762 C14.8571429,28.2222222 14.031746,29.1111111 14.0952381,30.1587302 C14.1269841,31.1428571 14.9206349,31.9365079 15.9047619,31.968254 Z" id="路径" fill="#126BF2"></path>
                    <path d="M15.9047619,45.8412698 L22.984127,45.8412698 C24.031746,45.8095238 24.8571429,44.9206349 24.7936508,43.8730159 C24.7619048,42.8888889 23.968254,42.0952381 22.984127,42.0634921 L15.9047619,42.0634921 C14.8571429,42.0952381 14.031746,42.984127 14.0952381,44.031746 C14.1269841,45.015873 14.9206349,45.8095238 15.9047619,45.8412698 Z" id="路径" fill="#126BF2"></path>
                    <path d="M47.5873016,0 L8.44444444,0 C3.77777778,0 0,3.77777778 0,8.41269841 L0,54.4126984 C0,59.047619 3.77777778,62.8253968 8.44444444,62.8253968 L29.968254,62.8253968 C31.015873,62.8253968 31.8730159,61.968254 31.8730159,60.9206349 C31.8730159,60.031746 31.2698413,59.2698413 30.4126984,59.047619 L8.44444444,58.984127 C5.9047619,58.984127 3.84126984,56.9206349 3.84126984,54.3809524 L3.84126984,8.41269841 C3.84126984,5.87301587 5.9047619,3.80952381 8.44444444,3.80952381 L47.5873016,3.80952381 C50.1269841,3.80952381 52.1904762,5.87301587 52.1904762,8.41269841 L52.1904762,36.7301587 C52.1904762,37.7777778 53.047619,38.6349206 54.0952381,38.6349206 C55.1428571,38.6349206 56,37.7777778 56,36.7301587 L56,8.41269841 C56,3.77777778 52.2222222,0 47.5873016,0 Z" id="路径" fill="#126BF2"></path>
                    <g id="编组" transform="translate(29.644304, 33.036948)" fill="#32CDAA">
                        <path d="M20.1334734,14.9630517 C19.6572829,14.9630517 19.1810925,14.7725755 18.8318861,14.3916231 L13.2128385,8.39162314 C12.5144258,7.62971838 12.5461718,6.4551152 13.2445845,5.72495647 C13.9747432,4.99479774 15.1176004,5.02654378 15.8160131,5.75670251 L21.4350607,11.7567025 C22.1334734,12.5186073 22.1017274,13.6932104 21.4033147,14.4233692 C21.0223623,14.7725755 20.5779179,14.9630517 20.1334734,14.9630517 L20.1334734,14.9630517 Z" id="路径"></path>
                        <path d="M0.101727375,21.0582898 C-0.215732943,20.0424168 0.260457534,18.9630517 0.831886105,18.296385 L15.752521,0.867813616 C16.1652194,0.39162314 16.736648,0.0741628227 17.3715686,0.0106707592 C18.0382353,-0.0528213043 18.704902,0.169400918 19.1810925,0.613845362 L25.3398226,6.29638504 C26.3239496,7.21701997 26.4191877,8.80432155 25.4985528,9.8519406 L21.752521,14.264639 C21.0858544,15.0582898 19.9429972,15.1217819 19.1810925,14.4233692 C18.4191877,13.7249565 18.3556956,12.5503533 19.0223623,11.7567025 L22.0064893,8.26463901 L17.689029,4.29638504 L3.72077499,20.6138454 C3.72077499,20.7090835 3.72077499,20.8043216 3.72077499,20.8995596 L3.81601309,25.5027343 L7.68902896,25.0265438 C7.75252103,24.9630517 7.81601309,24.8995596 7.87950515,24.8360676 L15.5302988,16.0741628 C16.1969655,15.3122581 17.3398226,15.248766 18.1017274,15.9471787 C18.8318861,16.6455914 18.8953782,17.8519406 18.2287115,18.6138454 L10.5779179,27.3440041 C10.3874417,27.5662263 10.1017274,27.8836866 9.78426706,28.1376549 C9.05410833,28.7408295 8.41918769,28.8678136 7.94299722,28.8043216 L0.292203565,29.6932104 L0.101727375,21.0582898 Z" id="形状"></path>
                    </g>
                </g>
            </g>
        </g>
    </g>
</svg>